<?xml version="1.0" encoding="UTF-8"?>
<!DOCTYPE svg PUBLIC "-//W3C//DTD SVG 1.1//EN" "http://www.w3.org/Graphics/SVG/1.1/DTD/svg11.dtd">
<svg xmlns="http://www.w3.org/2000/svg" version="1.1" width="100px" height="100px" style="shape-rendering:geometricPrecision; text-rendering:geometricPrecision; image-rendering:optimizeQuality; fill-rule:evenodd; clip-rule:evenodd" xmlns:xlink="http://www.w3.org/1999/xlink">
<g><path style="opacity:1" fill="#4a4273" d="M 56.5,7.5 C 57.675,7.28099 58.675,7.61432 59.5,8.5C 60.5804,10.9962 61.9138,13.3295 63.5,15.5C 67.511,12.4966 70.1777,13.4966 71.5,18.5C 74.333,17.0668 77.333,16.4001 80.5,16.5C 79.801,19.5729 78.801,22.5729 77.5,25.5C 79.3043,26.7681 81.3043,27.4348 83.5,27.5C 82.9371,29.91 82.4371,32.2433 82,34.5C 84.911,35.3698 87.411,36.8698 89.5,39C 89.3552,39.772 89.0219,40.4387 88.5,41C 85.6229,41.9562 82.9562,43.2895 80.5,45C 84.3764,47.5391 84.3764,49.8724 80.5,52C 83.0997,56.8525 82.9331,61.6858 80,66.5C 78.0478,68.8936 75.5478,70.3936 72.5,71C 54.4093,71.9726 36.4093,71.6392 18.5,70C 11.0279,64.2269 9.52791,57.0602 14,48.5C 17.3304,44.7518 21.497,43.0851 26.5,43.5C 27.6626,39.0178 29.9959,35.1845 33.5,32C 30.8191,28.9464 31.6524,27.1131 36,26.5C 36.0475,23.1224 35.5475,19.7891 34.5,16.5C 38.1667,17.1667 41.8333,17.8333 45.5,18.5C 45.0101,16.0516 45.8434,14.385 48,13.5C 49.3932,14.6151 50.8932,15.1151 52.5,15C 53.9732,12.5524 55.3065,10.0524 56.5,7.5 Z"/></g>
<g><path style="opacity:1" fill="#f3b450" d="M 76.5,51.5 C 74.0034,49.1289 71.0034,48.1289 67.5,48.5C 72.6076,39.964 70.9409,33.1307 62.5,28C 57.5759,26.7433 53.2426,27.5766 49.5,30.5C 45.658,30.2391 41.9913,30.9058 38.5,32.5C 37.8165,32.1373 37.1499,31.8039 36.5,31.5C 36.3893,30.8826 36.056,30.3826 35.5,30C 36.7659,29.6905 37.9326,29.1905 39,28.5C 39.711,26.1009 39.5443,23.7676 38.5,21.5C 41.3733,21.1244 44.3733,21.1244 47.5,21.5C 47.3118,19.8967 47.8118,18.5634 49,17.5C 50.1332,19.2112 51.6332,19.7112 53.5,19C 55.1233,16.9205 56.6233,14.7538 58,12.5C 59.3622,15.2356 61.1956,17.5689 63.5,19.5C 66.0412,16.5906 67.7078,17.0906 68.5,21C 71.2766,21.0511 73.9433,21.2178 76.5,21.5C 73.0737,26.1572 74.0737,29.1572 79.5,30.5C 77.876,31.8689 77.376,33.5355 78,35.5C 80.087,36.7938 82.2537,37.9605 84.5,39C 81.7251,40.3735 79.3918,42.2068 77.5,44.5C 77.5288,46.0293 78.1955,47.196 79.5,48C 77.5743,48.4224 76.5743,49.5891 76.5,51.5 Z"/></g>
<g><path style="opacity:1" fill="#fdc472" d="M 67.5,48.5 C 65.2389,38.9053 59.2389,32.9053 49.5,30.5C 53.2426,27.5766 57.5759,26.7433 62.5,28C 70.9409,33.1307 72.6076,39.964 67.5,48.5 Z"/></g>
<g><path style="opacity:1" fill="#94cefd" d="M 49.5,30.5 C 59.2389,32.9053 65.2389,38.9053 67.5,48.5C 71.0034,48.1289 74.0034,49.1289 76.5,51.5C 80.4038,56.1504 80.4038,60.9837 76.5,66C 74.913,66.8624 73.2464,67.5291 71.5,68C 54.8333,68.6667 38.1667,68.6667 21.5,68C 14.8677,64.9031 12.701,59.7364 15,52.5C 18.194,47.6545 22.694,45.6545 28.5,46.5C 28.7553,43.9837 29.5886,41.6504 31,39.5C 33.1315,36.8982 34.9648,34.2316 36.5,31.5C 37.1499,31.8039 37.8165,32.1373 38.5,32.5C 41.9913,30.9058 45.658,30.2391 49.5,30.5 Z"/></g>
<g><path style="opacity:1" fill="#4a4376" d="M 27.5,74.5 C 28.3764,74.3691 29.0431,74.7025 29.5,75.5C 31.1604,78.7698 31.4938,82.1031 30.5,85.5C 26.1616,88.6636 23.1616,87.6636 21.5,82.5C 23.1063,79.5573 25.1063,76.8906 27.5,74.5 Z"/></g>
<g><path style="opacity:1" fill="#4b4477" d="M 46.5,74.5 C 50.356,77.2243 51.356,80.891 49.5,85.5C 45.1616,88.6636 42.1616,87.6636 40.5,82.5C 42.1063,79.5573 44.1063,76.8906 46.5,74.5 Z"/></g>
<g><path style="opacity:1" fill="#4a4476" d="M 65.5,74.5 C 66.3764,74.3691 67.0431,74.7025 67.5,75.5C 69.4157,78.7232 69.749,82.0566 68.5,85.5C 64.1616,88.6636 61.1616,87.6636 59.5,82.5C 61.1063,79.5573 63.1063,76.8906 65.5,74.5 Z"/></g>
<g><path style="opacity:1" fill="#ccdff3" d="M 26.5,79.5 C 29.0628,80.9979 29.0628,82.6646 26.5,84.5C 24.0698,82.9626 24.0698,81.296 26.5,79.5 Z"/></g>
<g><path style="opacity:1" fill="#ccdef2" d="M 45.5,79.5 C 48.0628,80.9979 48.0628,82.6646 45.5,84.5C 43.0698,82.9626 43.0698,81.296 45.5,79.5 Z"/></g>
<g><path style="opacity:1" fill="#ccdef2" d="M 64.5,79.5 C 67.0628,80.9979 67.0628,82.6646 64.5,84.5C 62.0698,82.9626 62.0698,81.296 64.5,79.5 Z"/></g>
</svg>
