<?xml version="1.0" encoding="UTF-8"?>
<!DOCTYPE svg PUBLIC "-//W3C//DTD SVG 1.1//EN" "http://www.w3.org/Graphics/SVG/1.1/DTD/svg11.dtd">
<svg xmlns="http://www.w3.org/2000/svg" version="1.1" width="100px" height="100px" style="shape-rendering:geometricPrecision; text-rendering:geometricPrecision; image-rendering:optimizeQuality; fill-rule:evenodd; clip-rule:evenodd" xmlns:xlink="http://www.w3.org/1999/xlink">
<g><path style="opacity:1" fill="#453f73" d="M 27.5,13.5 C 31.8884,12.9433 35.0551,14.6099 37,18.5C 37.3333,29.8333 37.6667,41.1667 38,52.5C 47.1995,59.2557 48.8661,67.5891 43,77.5C 35.8298,84.4077 27.9964,85.2411 19.5,80C 10.8801,69.9189 11.7134,60.7522 22,52.5C 22.3333,41.1667 22.6667,29.8333 23,18.5C 24.025,16.313 25.525,14.6464 27.5,13.5 Z"/></g>
<g><path style="opacity:0.198" fill="#030303" d="M 41.5,14.5 C 43.8297,16.5418 44.9964,19.2084 45,22.5C 45.4995,28.8246 45.6662,35.1579 45.5,41.5C 45.0022,44.4869 44.5022,47.4869 44,50.5C 43.6667,50.1667 43.3333,49.8333 43,49.5C 42.792,37.788 42.292,26.1214 41.5,14.5 Z"/></g>
<g><path style="opacity:1" fill="#d4e8fa" d="M 30.5,29.5 C 28.8333,29.5 27.1667,29.5 25.5,29.5C 25.3347,25.8183 25.5014,22.1516 26,18.5C 31.8357,14.847 34.669,16.5137 34.5,23.5C 33.1667,23.5 31.8333,23.5 30.5,23.5C 30.5,24.5 30.5,25.5 30.5,26.5C 31.8333,26.5 33.1667,26.5 34.5,26.5C 34.5,27.5 34.5,28.5 34.5,29.5C 33.1667,29.5 31.8333,29.5 30.5,29.5 Z"/></g>
<g><path style="opacity:1" fill="#494376" d="M 75.5,18.5 C 76.8221,18.33 77.9887,18.6634 79,19.5C 82.1169,23.9011 84.2836,28.7344 85.5,34C 84.1672,40.6659 80.1672,43.3326 73.5,42C 70.4099,39.9843 68.7433,37.1509 68.5,33.5C 70.0325,28.1028 72.3659,23.1028 75.5,18.5 Z"/></g>
<g><path style="opacity:0.235" fill="#2b2b2b" d="M 83.5,16.5 C 84.9063,16.9731 85.573,17.9731 85.5,19.5C 84.0937,19.0269 83.427,18.0269 83.5,16.5 Z"/></g>
<g><path style="opacity:0.092" fill="#1b1b1b" d="M 85.5,19.5 C 87.2503,20.6594 88.2503,22.326 88.5,24.5C 86.7497,23.3406 85.7497,21.674 85.5,19.5 Z"/></g>
<g><path style="opacity:1" fill="#6db8f7" d="M 76.5,22.5 C 80.2831,26.3998 82.1165,31.0664 82,36.5C 77.1856,41.0046 73.6856,40.1712 71.5,34C 72.7618,29.9778 74.4285,26.1445 76.5,22.5 Z"/></g>
<g><path style="opacity:0.266" fill="#050505" d="M 88.5,24.5 C 92.256,29.4982 93.4227,35.1649 92,41.5C 89.953,45.0483 87.1197,47.715 83.5,49.5C 82.5266,49.0133 81.5266,48.5133 80.5,48C 90.5571,42.7858 93.2238,34.9524 88.5,24.5 Z"/></g>
<g><path style="opacity:1" fill="#6fbcfc" d="M 25.5,29.5 C 27.1667,29.5 28.8333,29.5 30.5,29.5C 30.5,30.5 30.5,31.5 30.5,32.5C 31.8333,32.5 33.1667,32.5 34.5,32.5C 34.5,33.5 34.5,34.5 34.5,35.5C 33.1667,35.5 31.8333,35.5 30.5,35.5C 30.5,36.5 30.5,37.5 30.5,38.5C 31.8333,38.5 33.1667,38.5 34.5,38.5C 34.5,39.5 34.5,40.5 34.5,41.5C 33.1667,41.5 31.8333,41.5 30.5,41.5C 30.5,42.5 30.5,43.5 30.5,44.5C 31.8333,44.5 33.1667,44.5 34.5,44.5C 34.5,45.5 34.5,46.5 34.5,47.5C 33.1667,47.5 31.8333,47.5 30.5,47.5C 30.5,48.5 30.5,49.5 30.5,50.5C 31.8333,50.5 33.1667,50.5 34.5,50.5C 34.7865,53.9304 36.6198,56.2638 40,57.5C 44.4888,63.7845 44.4888,70.1178 40,76.5C 31.6878,82.6277 24.3544,81.6277 18,73.5C 14.5207,65.1434 16.6874,58.8101 24.5,54.5C 25.4979,46.1932 25.8312,37.8599 25.5,29.5 Z"/></g>
<g><path style="opacity:1" fill="#4a4578" d="M 56.5,34.5 C 58.6237,35.0312 60.1237,36.3645 61,38.5C 62.9202,41.8382 64.4202,45.3382 65.5,49C 65.3333,54.5 62.5,57.3333 57,57.5C 52.0467,56.8778 49.5467,54.0445 49.5,49C 51.1755,43.8166 53.5088,38.9833 56.5,34.5 Z"/></g>
<g><path style="opacity:1" fill="#6eb9f9" d="M 56.5,39.5 C 61.1063,42.6457 62.7729,46.9791 61.5,52.5C 57.1616,55.6636 54.1616,54.6636 52.5,49.5C 53.4074,45.9498 54.7407,42.6164 56.5,39.5 Z"/></g>
<g><path style="opacity:1" fill="#494376" d="M 75.5,52.5 C 76.8221,52.33 77.9887,52.6634 79,53.5C 82.1169,57.9011 84.2836,62.7344 85.5,68C 84.1672,74.6659 80.1672,77.3326 73.5,76C 70.4099,73.9843 68.7433,71.1509 68.5,67.5C 70.0325,62.1028 72.3659,57.1028 75.5,52.5 Z"/></g>
<g><path style="opacity:0.235" fill="#2b2b2b" d="M 83.5,50.5 C 84.9063,50.9731 85.573,51.9731 85.5,53.5C 84.0937,53.0269 83.427,52.0269 83.5,50.5 Z"/></g>
<g><path style="opacity:0.092" fill="#1a1a1a" d="M 85.5,53.5 C 87.2503,54.6594 88.2503,56.326 88.5,58.5C 86.7497,57.3406 85.7497,55.674 85.5,53.5 Z"/></g>
<g><path style="opacity:1" fill="#6db8f7" d="M 76.5,56.5 C 80.2831,60.3998 82.1165,65.0664 82,70.5C 77.1856,75.0046 73.6856,74.1712 71.5,68C 72.7618,63.9778 74.4285,60.1445 76.5,56.5 Z"/></g>
<g><path style="opacity:0.275" fill="#080808" d="M 63.5,64.5 C 60.2234,64.7839 57.0567,64.4505 54,63.5C 54.8889,83.2732 45.3889,92.1065 25.5,90C 22.9746,89.5762 20.9746,88.4095 19.5,86.5C 40.4503,91.568 51.4503,83.2346 52.5,61.5C 56.6484,62.9816 60.6484,62.6482 64.5,60.5C 64.8333,60.6667 65.1667,60.8333 65.5,61C 64.695,62.1127 64.0283,63.2794 63.5,64.5 Z"/></g>
<g><path style="opacity:0.266" fill="#020202" d="M 88.5,58.5 C 92.7116,64.2867 93.5449,70.62 91,77.5C 86.4703,83.1706 80.637,85.004 73.5,83C 72.0577,82.6232 71.0577,81.7899 70.5,80.5C 87.7285,82.5934 93.7285,75.26 88.5,58.5 Z"/></g>
<g><path style="opacity:0.231" fill="#333333" d="M 16.5,84.5 C 18.0269,84.427 19.0269,85.0937 19.5,86.5C 17.9731,86.573 16.9731,85.9063 16.5,84.5 Z"/></g>
</svg>
