<?xml version="1.0" encoding="UTF-8"?>
<!DOCTYPE svg PUBLIC "-//W3C//DTD SVG 1.1//EN" "http://www.w3.org/Graphics/SVG/1.1/DTD/svg11.dtd">
<svg xmlns="http://www.w3.org/2000/svg" version="1.1" width="100px" height="100px" style="shape-rendering:geometricPrecision; text-rendering:geometricPrecision; image-rendering:optimizeQuality; fill-rule:evenodd; clip-rule:evenodd" xmlns:xlink="http://www.w3.org/1999/xlink">
<g><path style="opacity:1" fill="#464073" d="M 44.5,13.5 C 56.232,12.2555 64.5653,16.9221 69.5,27.5C 84.0519,29.2961 88.8852,36.9627 84,50.5C 82.0616,53.1059 79.5616,54.9392 76.5,56C 58.5,56.6667 40.5,56.6667 22.5,56C 13.0276,51.2492 10.5276,44.0825 15,34.5C 18.8436,30.1618 23.6769,27.8285 29.5,27.5C 32.6347,20.6942 37.6347,16.0275 44.5,13.5 Z"/></g>
<g><path style="opacity:1" fill="#93cdfd" d="M 44.5,16.5 C 55.8059,15.3148 63.4726,19.9815 67.5,30.5C 73.2076,30.4759 78.0409,32.4759 82,36.5C 84.9789,44.0405 82.8122,49.5405 75.5,53C 57.0761,53.9731 38.7428,53.6398 20.5,52C 13.2945,44.4538 13.9612,37.7871 22.5,32C 25.5535,31.8214 28.5535,31.3214 31.5,30.5C 33.8221,23.8486 38.1554,19.1819 44.5,16.5 Z"/></g>
<g><path style="opacity:1" fill="#4b4577" d="M 47.5,58.5 C 51.2509,58.0824 53.4176,59.749 54,63.5C 60.3978,62.417 61.8978,64.7503 58.5,70.5C 61.8978,76.2497 60.3978,78.583 54,77.5C 52.7616,82.6371 50.0949,83.6371 46,80.5C 45.6667,79.5 45.3333,78.5 45,77.5C 38.6022,78.583 37.1022,76.2497 40.5,70.5C 37.1022,64.7503 38.6022,62.417 45,63.5C 45.3661,61.5483 46.1995,59.8816 47.5,58.5 Z"/></g>
<g><path style="opacity:1" fill="#cee1f5" d="M 48.5,61.5 C 50.3079,62.9179 50.9746,64.9179 50.5,67.5C 52.677,67.4139 54.677,66.7472 56.5,65.5C 56.8333,65.8333 57.1667,66.1667 57.5,66.5C 55.8333,67.5 54.5,68.8333 53.5,70.5C 54.8333,71.8333 56.1667,73.1667 57.5,74.5C 57.1667,74.8333 56.8333,75.1667 56.5,75.5C 54.677,74.2528 52.677,73.5861 50.5,73.5C 49.8333,81.5 49.1667,81.5 48.5,73.5C 46.323,73.5861 44.323,74.2528 42.5,75.5C 42.1667,75.1667 41.8333,74.8333 41.5,74.5C 43.1667,73.5 44.5,72.1667 45.5,70.5C 44.1667,69.1667 42.8333,67.8333 41.5,66.5C 41.8333,66.1667 42.1667,65.8333 42.5,65.5C 44.323,66.7472 46.323,67.4139 48.5,67.5C 48.5,65.5 48.5,63.5 48.5,61.5 Z"/></g>
<g><path style="opacity:1" fill="#474275" d="M 24.5,65.5 C 25.5,65.5 26.5,65.5 27.5,65.5C 28.481,70.1292 28.6477,74.7959 28,79.5C 22.3444,84.1292 18.511,82.9625 16.5,76C 16.6251,74.3732 17.1251,72.8732 18,71.5C 20.3353,69.5998 22.502,67.5998 24.5,65.5 Z"/></g>
<g><path style="opacity:1" fill="#474275" d="M 73.5,66.5 C 74.5,66.5 75.5,66.5 76.5,66.5C 77.481,71.1292 77.6477,75.7959 77,80.5C 71.3444,85.1292 67.511,83.9625 65.5,77C 65.6251,75.3732 66.1251,73.8732 67,72.5C 69.3353,70.5998 71.502,68.5998 73.5,66.5 Z"/></g>
<g><path style="opacity:1" fill="#297fb7" d="M 24.5,69.5 C 26.2029,71.8512 26.7029,74.5178 26,77.5C 23.1359,80.3264 20.9692,79.8264 19.5,76C 20.9852,73.683 22.6519,71.5164 24.5,69.5 Z"/></g>
<g><path style="opacity:1" fill="#297fb7" d="M 73.5,70.5 C 75.2029,72.8512 75.7029,75.5178 75,78.5C 72.1359,81.3264 69.9692,80.8264 68.5,77C 69.9852,74.683 71.6519,72.5164 73.5,70.5 Z"/></g>
</svg>
