<?xml version="1.0" encoding="UTF-8"?>
<!DOCTYPE svg PUBLIC "-//W3C//DTD SVG 1.1//EN" "http://www.w3.org/Graphics/SVG/1.1/DTD/svg11.dtd">
<svg xmlns="http://www.w3.org/2000/svg" version="1.1" width="96px" height="96px" style="shape-rendering:geometricPrecision; text-rendering:geometricPrecision; image-rendering:optimizeQuality; fill-rule:evenodd; clip-rule:evenodd" xmlns:xlink="http://www.w3.org/1999/xlink">
<g><path style="opacity:0.929" fill="#dfeaf8" d="M 62.5,15.5 C 64.6634,17.4318 66.9967,17.7651 69.5,16.5C 68.2345,19.9298 67.2345,23.4298 66.5,27C 68.0629,27.7589 69.0629,28.9256 69.5,30.5C 67.5,29.1667 65.5,29.1667 63.5,30.5C 47.8333,30.5 32.1667,30.5 16.5,30.5C 16.5,30.1667 16.5,29.8333 16.5,29.5C 31.8478,29.8327 47.1811,29.4994 62.5,28.5C 65.3383,24.69 65.005,21.19 61.5,18C 45.328,17.1719 29.328,17.3386 13.5,18.5C 10.0301,19.7804 8.03007,21.9471 7.5,25C 8.16667,25.3333 8.83333,25.6667 9.5,26C 9.27155,26.3988 8.93822,26.5654 8.5,26.5C 7.5041,26.5858 6.67076,26.2524 6,25.5C 5.40605,20.7406 7.57272,17.9073 12.5,17C 29.3384,16.8315 46.005,16.3315 62.5,15.5 Z"/></g>
<g><path style="opacity:0.988" fill="#dfeaf7" d="M 84.5,32.5 C 82.4467,31.3101 80.1134,30.6434 77.5,30.5C 74.6276,30.9792 71.9609,30.9792 69.5,30.5C 69.0629,28.9256 68.0629,27.7589 66.5,27C 67.2345,23.4298 68.2345,19.9298 69.5,16.5C 74.6503,15.3493 79.9836,15.1826 85.5,16C 86.4162,16.3742 87.2496,16.8742 88,17.5C 90.7938,23.5924 89.6271,28.5924 84.5,32.5 Z"/></g>
<g><path style="opacity:1" fill="#c5d2e1" d="M 72.5,18.5 C 76.1817,18.3347 79.8484,18.5014 83.5,19C 86.0059,22.0565 86.0059,25.2231 83.5,28.5C 79.5411,29.6599 75.5411,29.8265 71.5,29C 68.8333,26.1945 68.1666,23.0279 69.5,19.5C 70.791,19.7373 71.791,19.404 72.5,18.5 Z"/></g>
<g><path style="opacity:0.996" fill="#d5e2f0" d="M 16.5,29.5 C 13.5568,29.0198 10.8902,28.0198 8.5,26.5C 8.93822,26.5654 9.27155,26.3988 9.5,26C 8.83333,25.6667 8.16667,25.3333 7.5,25C 8.03007,21.9471 10.0301,19.7804 13.5,18.5C 29.328,17.3386 45.328,17.1719 61.5,18C 65.005,21.19 65.3383,24.69 62.5,28.5C 47.1811,29.4994 31.8478,29.8327 16.5,29.5 Z"/></g>
<g><path style="opacity:1" fill="#cfdbe9" d="M 13.5,18.5 C 28.837,18.3334 44.1703,18.5001 59.5,19C 63.0846,21.5281 63.418,24.5281 60.5,28C 45.1667,28.6667 29.8333,28.6667 14.5,28C 9.56448,25.4284 9.23115,22.2617 13.5,18.5 Z"/></g>
<g><path style="opacity:1" fill="#c3d0e0" d="M 16.5,19.5 C 30.5159,19.1674 44.5159,19.5008 58.5,20.5C 60.2177,23.4728 59.5511,25.6395 56.5,27C 43.1667,27.6667 29.8333,27.6667 16.5,27C 14.4267,26.8817 13.0933,25.8817 12.5,24C 13.1173,21.7731 14.4506,20.2731 16.5,19.5 Z"/></g>
<g><path style="opacity:1" fill="#b8c6d6" d="M 18.5,21.5 C 30.8378,21.3335 43.1712,21.5001 55.5,22C 56.8333,23 56.8333,24 55.5,25C 43.1667,25.6667 30.8333,25.6667 18.5,25C 17.3157,23.8545 17.3157,22.6879 18.5,21.5 Z"/></g>
<g><path style="opacity:0.999" fill="#d2deed" d="M 85.5,32.5 C 86.4916,32.3284 87.1583,32.6618 87.5,33.5C 88.1504,37.6072 87.1504,41.1072 84.5,44C 73.5775,45.4312 62.5775,45.9312 51.5,45.5C 47.6491,41.6455 47.6491,37.8122 51.5,34C 61.4944,33.5002 71.4944,33.3335 81.5,33.5C 82.5832,33.5394 83.5832,33.8728 84.5,34.5C 85.2975,34.0431 85.6309,33.3764 85.5,32.5 Z"/></g>
<g><path style="opacity:1" fill="#c0cddd" d="M 54.5,35.5 C 63.1731,35.3336 71.8397,35.5002 80.5,36C 85.0775,37.407 85.5775,39.5737 82,42.5C 72.5352,43.628 63.0352,43.7946 53.5,43C 51.75,41.2458 51.0833,39.0792 51.5,36.5C 52.791,36.7373 53.791,36.404 54.5,35.5 Z"/></g>
<g><path style="opacity:0.995" fill="#d4e0ee" d="M 25.5,45.5 C 21.9166,44.4822 18.2499,43.6489 14.5,43C 13.944,42.6174 13.6107,42.1174 13.5,41.5C 14.2333,38.2629 16.2333,36.0962 19.5,35C 26.4436,33.5452 33.4436,33.2119 40.5,34C 42.1884,35.6884 43.8551,37.3551 45.5,39C 44.7636,41.1394 43.7636,43.1394 42.5,45C 36.8431,45.4994 31.1764,45.6661 25.5,45.5 Z"/></g>
<g><path style="opacity:1" fill="#c2cfde" d="M 25.5,35.5 C 30.2137,35.1734 34.8804,35.5067 39.5,36.5C 42.0806,38.6737 42.0806,40.8404 39.5,43C 33.7753,43.7175 28.1087,43.3841 22.5,42C 21.09,41.6322 20.09,40.7989 19.5,39.5C 21.2187,37.6478 23.2187,36.3145 25.5,35.5 Z"/></g>
<g><path style="opacity:1" fill="#d2deec" d="M 12.5,49.5 C 29.17,49.3334 45.8367,49.5001 62.5,50C 67.525,50.8398 69.525,53.6731 68.5,58.5C 67.5832,59.1272 66.5832,59.4606 65.5,59.5C 65.5,59.8333 65.5,60.1667 65.5,60.5C 47.5313,61.6266 29.5313,61.7933 11.5,61C 3.53241,56.7032 3.86574,52.8699 12.5,49.5 Z"/></g>
<g><path style="opacity:0.935" fill="#dfebf8" d="M 67.5,48.5 C 71.4929,49.6513 74.4929,51.9846 76.5,55.5C 75.6653,58.5818 73.6653,60.2485 70.5,60.5C 68.8333,60.5 67.1667,60.5 65.5,60.5C 65.5,60.1667 65.5,59.8333 65.5,59.5C 66.5832,59.4606 67.5832,59.1272 68.5,58.5C 69.525,53.6731 67.525,50.8398 62.5,50C 45.8367,49.5001 29.17,49.3334 12.5,49.5C 29.0197,48.8058 45.6864,48.1392 62.5,47.5C 63.7412,48.0372 64.9079,48.7039 66,49.5C 66.7648,49.4301 67.2648,49.0967 67.5,48.5 Z"/></g>
<g><path style="opacity:1" fill="#c8d4e3" d="M 65.5,59.5 C 48.9915,59.8298 32.6581,59.4964 16.5,58.5C 31.837,58.6666 47.1703,58.4999 62.5,58C 63.7468,56.5421 63.7468,55.0421 62.5,53.5C 46.844,52.3338 31.1773,52.1671 15.5,53C 11.6491,54.8065 11.6491,56.6398 15.5,58.5C 9.82554,57.9753 9.15888,55.8087 13.5,52C 30.1667,51.3333 46.8333,51.3333 63.5,52C 65.5212,52.4012 66.8545,53.5679 67.5,55.5C 66.3698,56.6223 65.7031,57.9557 65.5,59.5 Z"/></g>
<g><path style="opacity:1" fill="#bac8d8" d="M 16.5,58.5 C 16.1667,58.5 15.8333,58.5 15.5,58.5C 11.6491,56.6398 11.6491,54.8065 15.5,53C 31.1773,52.1671 46.844,52.3338 62.5,53.5C 63.7468,55.0421 63.7468,56.5421 62.5,58C 47.1703,58.4999 31.837,58.6666 16.5,58.5 Z"/></g>
<g><path style="opacity:0.529" fill="#e4f0fb" d="M 65.5,60.5 C 67.1667,60.5 68.8333,60.5 70.5,60.5C 69.158,61.793 67.4913,62.6264 65.5,63C 70.1548,63.4992 74.8215,63.6658 79.5,63.5C 62.6276,64.8251 45.6276,64.8251 28.5,63.5C 28.1667,64.1667 27.8333,64.8333 27.5,65.5C 26.8933,65.3764 26.56,65.0431 26.5,64.5C 23.0381,63.5184 19.3714,63.185 15.5,63.5C 31.3281,62.6686 47.3281,62.1686 63.5,62C 64.4158,61.7216 65.0825,61.2216 65.5,60.5 Z"/></g>
<g><path style="opacity:0.937" fill="#e0ebf9" d="M 79.5,63.5 C 84.6919,63.5136 88.8585,65.5136 92,69.5C 92.6347,71.6354 92.3014,73.6354 91,75.5C 88.913,76.7938 86.7463,77.9605 84.5,79C 65.1667,79.6667 45.8333,79.6667 26.5,79C 13.1905,73.9309 13.1905,69.0976 26.5,64.5C 26.56,65.0431 26.8933,65.3764 27.5,65.5C 27.8333,64.8333 28.1667,64.1667 28.5,63.5C 45.6276,64.8251 62.6276,64.8251 79.5,63.5 Z"/></g>
<g><path style="opacity:0.996" fill="#d5e1f0" d="M 29.5,65.5 C 46.8365,65.3334 64.1699,65.5001 81.5,66C 86.1147,67.1235 87.6147,69.9569 86,74.5C 84.5806,75.4601 83.0806,76.2935 81.5,77C 63.1576,77.833 44.8242,77.6663 26.5,76.5C 25.8333,75.1667 24.8333,74.1667 23.5,73.5C 22.3861,72.277 22.2195,70.9437 23,69.5C 25.0129,67.7518 27.1795,66.4185 29.5,65.5 Z"/></g>
<g><path style="opacity:1" fill="#c7d3e3" d="M 80.5,74.5 C 79.8333,74.5 79.5,74.8333 79.5,75.5C 63.4965,75.6666 47.4965,75.4999 31.5,75C 26.268,72.9455 26.268,70.6122 31.5,68C 47.5,67.3333 63.5,67.3333 79.5,68C 81.4576,70.0028 81.7909,72.1695 80.5,74.5 Z"/></g>
<g><path style="opacity:1" fill="#cfdbe9" d="M 80.5,74.5 C 81.7909,72.1695 81.4576,70.0028 79.5,68C 63.5,67.3333 47.5,67.3333 31.5,68C 26.268,70.6122 26.268,72.9455 31.5,75C 47.4965,75.4999 63.4965,75.6666 79.5,75.5C 63.0051,76.6616 46.3384,76.8283 29.5,76C 22.5688,72.1364 22.9021,69.1364 30.5,67C 47.1667,66.3333 63.8333,66.3333 80.5,67C 85.5206,69.7789 85.5206,72.2789 80.5,74.5 Z"/></g>
<g><path style="opacity:1" fill="#bbc8d8" d="M 33.5,68.5 C 48.1705,68.3334 62.8371,68.5001 77.5,69C 78.5536,70.3876 78.7203,71.8876 78,73.5C 62.5423,74.7965 47.0423,74.7965 31.5,73.5C 31.3653,71.4458 32.032,69.7791 33.5,68.5 Z"/></g>
</svg>
