<?xml version="1.0" encoding="UTF-8"?>
<!DOCTYPE svg PUBLIC "-//W3C//DTD SVG 1.1//EN" "http://www.w3.org/Graphics/SVG/1.1/DTD/svg11.dtd">
<svg xmlns="http://www.w3.org/2000/svg" version="1.1" width="100px" height="100px" style="shape-rendering:geometricPrecision; text-rendering:geometricPrecision; image-rendering:optimizeQuality; fill-rule:evenodd; clip-rule:evenodd" xmlns:xlink="http://www.w3.org/1999/xlink">
<g><path style="opacity:1" fill="#453f73" d="M 27.5,13.5 C 31.8884,12.9433 35.0551,14.6099 37,18.5C 37.3333,29.8333 37.6667,41.1667 38,52.5C 47.1995,59.2557 48.8661,67.5891 43,77.5C 35.8298,84.4077 27.9964,85.2411 19.5,80C 10.8801,69.9189 11.7134,60.7522 22,52.5C 22.3333,41.1667 22.6667,29.8333 23,18.5C 24.025,16.313 25.525,14.6464 27.5,13.5 Z"/></g>
<g><path style="opacity:1" fill="#d4e8fa" d="M 30.5,29.5 C 28.8333,29.5 27.1667,29.5 25.5,29.5C 25.3347,25.8183 25.5014,22.1516 26,18.5C 31.8357,14.847 34.669,16.5137 34.5,23.5C 33.1667,23.5 31.8333,23.5 30.5,23.5C 30.5,24.5 30.5,25.5 30.5,26.5C 31.8333,26.5 33.1667,26.5 34.5,26.5C 34.5,27.5 34.5,28.5 34.5,29.5C 33.1667,29.5 31.8333,29.5 30.5,29.5 Z"/></g>
<g><path style="opacity:1" fill="#494376" d="M 75.5,18.5 C 76.8221,18.33 77.9887,18.6634 79,19.5C 82.1169,23.9011 84.2836,28.7344 85.5,34C 84.1672,40.6659 80.1672,43.3326 73.5,42C 70.4099,39.9843 68.7433,37.1509 68.5,33.5C 70.0325,28.1028 72.3659,23.1028 75.5,18.5 Z"/></g>
<g><path style="opacity:1" fill="#6db8f7" d="M 76.5,22.5 C 80.2831,26.3998 82.1165,31.0664 82,36.5C 77.1856,41.0046 73.6856,40.1712 71.5,34C 72.7618,29.9778 74.4285,26.1445 76.5,22.5 Z"/></g>
<g><path style="opacity:1" fill="#6fbcfc" d="M 25.5,29.5 C 27.1667,29.5 28.8333,29.5 30.5,29.5C 30.5,30.5 30.5,31.5 30.5,32.5C 31.8333,32.5 33.1667,32.5 34.5,32.5C 34.5,33.5 34.5,34.5 34.5,35.5C 33.1667,35.5 31.8333,35.5 30.5,35.5C 30.5,36.5 30.5,37.5 30.5,38.5C 31.8333,38.5 33.1667,38.5 34.5,38.5C 34.5,39.5 34.5,40.5 34.5,41.5C 33.1667,41.5 31.8333,41.5 30.5,41.5C 30.5,42.5 30.5,43.5 30.5,44.5C 31.8333,44.5 33.1667,44.5 34.5,44.5C 34.5,45.5 34.5,46.5 34.5,47.5C 33.1667,47.5 31.8333,47.5 30.5,47.5C 30.5,48.5 30.5,49.5 30.5,50.5C 31.8333,50.5 33.1667,50.5 34.5,50.5C 34.7865,53.9304 36.6198,56.2638 40,57.5C 44.4888,63.7845 44.4888,70.1178 40,76.5C 31.6878,82.6277 24.3544,81.6277 18,73.5C 14.5207,65.1434 16.6874,58.8101 24.5,54.5C 25.4979,46.1932 25.8312,37.8599 25.5,29.5 Z"/></g>
<g><path style="opacity:1" fill="#4a4578" d="M 56.5,34.5 C 58.6237,35.0312 60.1237,36.3645 61,38.5C 62.9202,41.8382 64.4202,45.3382 65.5,49C 65.3333,54.5 62.5,57.3333 57,57.5C 52.0467,56.8778 49.5467,54.0445 49.5,49C 51.1755,43.8166 53.5088,38.9833 56.5,34.5 Z"/></g>
<g><path style="opacity:1" fill="#6eb9f9" d="M 56.5,39.5 C 61.1063,42.6457 62.7729,46.9791 61.5,52.5C 57.1616,55.6636 54.1616,54.6636 52.5,49.5C 53.4074,45.9498 54.7407,42.6164 56.5,39.5 Z"/></g>
<g><path style="opacity:1" fill="#494376" d="M 75.5,52.5 C 76.8221,52.33 77.9887,52.6634 79,53.5C 82.1169,57.9011 84.2836,62.7344 85.5,68C 84.1672,74.6659 80.1672,77.3326 73.5,76C 70.4099,73.9843 68.7433,71.1509 68.5,67.5C 70.0325,62.1028 72.3659,57.1028 75.5,52.5 Z"/></g>
<g><path style="opacity:1" fill="#6db8f7" d="M 76.5,56.5 C 80.2831,60.3998 82.1165,65.0664 82,70.5C 77.1856,75.0046 73.6856,74.1712 71.5,68C 72.7618,63.9778 74.4285,60.1445 76.5,56.5 Z"/></g>
</svg>
