<?xml version="1.0" encoding="UTF-8"?>
<!DOCTYPE svg PUBLIC "-//W3C//DTD SVG 1.1//EN" "http://www.w3.org/Graphics/SVG/1.1/DTD/svg11.dtd">
<svg xmlns="http://www.w3.org/2000/svg" version="1.1" width="100px" height="100px" style="shape-rendering:geometricPrecision; text-rendering:geometricPrecision; image-rendering:optimizeQuality; fill-rule:evenodd; clip-rule:evenodd" xmlns:xlink="http://www.w3.org/1999/xlink">
<g><path style="opacity:1" fill="#494375" d="M 49.5,15.5 C 64.2699,14.3605 72.6033,21.0272 74.5,35.5C 89.2904,37.7334 94.4571,46.0668 90,60.5C 87.7083,64.7885 84.2083,67.6218 79.5,69C 74.5,69.3333 69.5,69.6667 64.5,70C 62.1667,73 59.8333,76 57.5,79C 55.8659,79.4935 54.1992,79.6602 52.5,79.5C 52.2572,76.1174 52.9239,72.9508 54.5,70C 50.1667,69.3333 45.8333,69.3333 41.5,70C 39.1667,73 36.8333,76 34.5,79C 32.8659,79.4935 31.1992,79.6602 29.5,79.5C 29.2572,76.1174 29.9239,72.9508 31.5,70C 25.8333,69.6667 20.1667,69.3333 14.5,69C 7.94782,65.0642 6.11449,59.5642 9,52.5C 11.3575,49.9088 14.1908,48.2421 17.5,47.5C 17.7587,36.6654 23.4254,31.1654 34.5,31C 37.018,23.3169 42.018,18.1503 49.5,15.5 Z"/></g>
<g><path style="opacity:1" fill="#93cdfd" d="M 63.5,66.5 C 65.9507,62.8765 68.6174,59.3765 71.5,56C 69.1667,55.6667 66.8333,55.3333 64.5,55C 65.3995,52.8083 66.3995,50.6416 67.5,48.5C 65.1667,47.1667 62.8333,47.1667 60.5,48.5C 58.3557,52.6212 56.3557,56.7879 54.5,61C 56.5,61.3333 58.5,61.6667 60.5,62C 59.4131,64.5667 58.4131,67.0667 57.5,69.5C 57.5,68.5 57.5,67.5 57.5,66.5C 51.8333,66.5 46.1667,66.5 40.5,66.5C 42.9507,62.8765 45.6174,59.3765 48.5,56C 46.1667,55.6667 43.8333,55.3333 41.5,55C 42.3995,52.8083 43.3995,50.6416 44.5,48.5C 42.1667,47.1667 39.8333,47.1667 37.5,48.5C 35.3557,52.6212 33.3557,56.7879 31.5,61C 33.5,61.3333 35.5,61.6667 37.5,62C 36.4131,64.5667 35.4131,67.0667 34.5,69.5C 34.5,68.5 34.5,67.5 34.5,66.5C 28.1579,66.6662 21.8246,66.4995 15.5,66C 10.4648,62.9867 9.29808,58.8201 12,53.5C 14.3046,51.0695 17.1379,50.0695 20.5,50.5C 19.6104,38.0558 25.2771,33.0558 37.5,35.5C 39.8691,21.6328 47.8691,16.4661 61.5,20C 68.8693,23.9008 72.2027,30.0675 71.5,38.5C 86.9633,39.4226 91.7967,47.0893 86,61.5C 84.5905,62.7875 83.0905,63.9542 81.5,65C 75.5933,66.3608 69.5933,66.8608 63.5,66.5 Z"/></g>
<g><path style="opacity:0.659" fill="#666666" d="M 73.5,18.5 C 75.2624,19.2623 76.2624,20.5956 76.5,22.5C 74.7376,21.7377 73.7376,20.4044 73.5,18.5 Z"/></g>
<g><path style="opacity:0.184" fill="#111111" d="M 76.5,22.5 C 78.873,24.5792 80.2064,27.2459 80.5,30.5C 78.6127,28.2114 77.2794,25.5447 76.5,22.5 Z"/></g>
<g><path style="opacity:0.108" fill="#1f1f1f" d="M 93.5,39.5 C 94.9063,39.9731 95.573,40.9731 95.5,42.5C 94.0937,42.0269 93.427,41.0269 93.5,39.5 Z"/></g>
<g><path style="opacity:0.272" fill="#0e0e0e" d="M 95.5,42.5 C 97.1002,44.7026 98.4335,47.036 99.5,49.5C 99.5,52.8333 99.5,56.1667 99.5,59.5C 94.3953,73.2332 84.3953,79.0665 69.5,77C 66.8157,81.0861 63.4824,84.4195 59.5,87C 55.9661,87.8639 52.9661,87.0306 50.5,84.5C 53.5184,84.6646 56.5184,84.498 59.5,84C 62.1667,81 64.8333,78 67.5,75C 71.8333,74.6667 76.1667,74.3333 80.5,74C 95.1806,68.1297 100.181,57.6297 95.5,42.5 Z"/></g>
<g><path style="opacity:1" fill="#fae089" d="M 40.5,66.5 C 37.8644,69.3098 35.3644,72.3098 33,75.5C 33.1503,73.4944 33.6503,71.4944 34.5,69.5C 35.4131,67.0667 36.4131,64.5667 37.5,62C 35.5,61.6667 33.5,61.3333 31.5,61C 33.3557,56.7879 35.3557,52.6212 37.5,48.5C 39.8333,47.1667 42.1667,47.1667 44.5,48.5C 43.3995,50.6416 42.3995,52.8083 41.5,55C 43.8333,55.3333 46.1667,55.6667 48.5,56C 45.6174,59.3765 42.9507,62.8765 40.5,66.5 Z"/></g>
<g><path style="opacity:1" fill="#fae089" d="M 63.5,66.5 C 60.8644,69.3098 58.3644,72.3098 56,75.5C 56.1503,73.4944 56.6503,71.4944 57.5,69.5C 58.4131,67.0667 59.4131,64.5667 60.5,62C 58.5,61.6667 56.5,61.3333 54.5,61C 56.3557,56.7879 58.3557,52.6212 60.5,48.5C 62.8333,47.1667 65.1667,47.1667 67.5,48.5C 66.3995,50.6416 65.3995,52.8083 64.5,55C 66.8333,55.3333 69.1667,55.6667 71.5,56C 68.6174,59.3765 65.9507,62.8765 63.5,66.5 Z"/></g>
<g><path style="opacity:0.287" fill="#050505" d="M 9.5,72.5 C 14.4596,73.5591 19.1263,74.8924 23.5,76.5C 20.4816,76.6646 17.4816,76.498 14.5,76C 12.4156,75.3028 10.7489,74.1361 9.5,72.5 Z"/></g>
<g><path style="opacity:0.27" fill="#111111" d="M 46.5,77.5 C 44.364,79.8123 42.364,82.3123 40.5,85C 35.9199,88.438 31.5866,88.2714 27.5,84.5C 30.5184,84.6646 33.5184,84.498 36.5,84C 39.1623,80.5046 42.1623,77.3379 45.5,74.5C 46.3857,75.325 46.719,76.325 46.5,77.5 Z"/></g>
</svg>
