<?xml version="1.0" encoding="UTF-8"?>
<!DOCTYPE svg PUBLIC "-//W3C//DTD SVG 1.1//EN" "http://www.w3.org/Graphics/SVG/1.1/DTD/svg11.dtd">
<svg xmlns="http://www.w3.org/2000/svg" version="1.1" width="100px" height="100px" style="shape-rendering:geometricPrecision; text-rendering:geometricPrecision; image-rendering:optimizeQuality; fill-rule:evenodd; clip-rule:evenodd" xmlns:xlink="http://www.w3.org/1999/xlink">
<g><path style="opacity:1" fill="#4a4272" d="M 61.5,11.5 C 62.552,11.3505 63.552,11.5172 64.5,12C 65.7079,14.2503 67.0413,16.417 68.5,18.5C 72.5842,15.3064 74.5842,16.3064 74.5,21.5C 77.1595,20.6529 79.8262,20.1529 82.5,20C 83.1381,23.0707 83.1381,26.2374 82.5,29.5C 88.2533,29.9282 88.92,32.0948 84.5,36C 86.7173,37.2754 89.0506,38.2754 91.5,39C 92.0219,39.5613 92.3552,40.228 92.5,41C 90.3673,42.9156 88.034,44.7489 85.5,46.5C 88.5597,50.1528 87.7264,52.4861 83,53.5C 83.2532,56.133 83.2532,58.7996 83,61.5C 81.9326,62.1905 80.7659,62.6905 79.5,63C 81.6083,71.4504 78.6083,77.4504 70.5,81C 52.1667,81.6667 33.8333,81.6667 15.5,81C 7.45168,77.4045 4.28501,71.2379 6,62.5C 9.29543,56.2631 14.4621,52.5964 21.5,51.5C 24.9137,43.1212 30.9137,37.4545 39.5,34.5C 38.6906,32.9291 38.3573,31.2624 38.5,29.5C 39.8333,29.5 41.1667,29.5 42.5,29.5C 41.9492,26.1933 41.6159,22.8599 41.5,19.5C 44.5739,19.8726 47.5739,20.5392 50.5,21.5C 50.9717,16.5119 53.1384,15.5119 57,18.5C 58.9982,16.5076 60.4982,14.1743 61.5,11.5 Z"/></g>
<g><path style="opacity:1" fill="#f3b451" d="M 73.5,59.5 C 70.3703,57.9774 67.037,57.3107 63.5,57.5C 63.5,56.1667 63.5,54.8333 63.5,53.5C 70.4476,52.5526 74.4476,48.5526 75.5,41.5C 73.5583,31.4008 67.5583,27.5674 57.5,30C 53.5694,32.0421 51.2361,35.2088 50.5,39.5C 47.9039,38.7347 45.2372,38.4013 42.5,38.5C 43.819,36.5316 43.819,34.5316 42.5,32.5C 43.325,31.6143 44.325,31.281 45.5,31.5C 45.7683,28.8806 45.435,26.3806 44.5,24C 47.133,24.2532 49.7996,24.2532 52.5,24C 53.1905,22.9326 53.6905,21.7659 54,20.5C 55.0852,21.2931 56.2519,21.9598 57.5,22.5C 59.8044,20.5689 61.6378,18.2356 63,15.5C 64.0395,17.7463 65.2062,19.913 66.5,22C 68.3668,22.7112 69.8668,22.2112 71,20.5C 72.1882,21.5634 72.6882,22.8967 72.5,24.5C 75.2724,24.78 77.7724,24.1134 80,22.5C 79.6667,25.1667 79.3333,27.8333 79,30.5C 80.5095,31.0897 82.0095,31.7564 83.5,32.5C 81.876,33.8689 81.376,35.5355 82,37.5C 83.918,38.5418 85.7513,39.7085 87.5,41C 85.7513,42.2915 83.918,43.4582 82,44.5C 81.4054,45.8989 81.5721,47.2322 82.5,48.5C 81.2402,49.3816 80.0736,50.3816 79,51.5C 79.3333,54.1667 79.6667,56.8333 80,59.5C 77.5106,57.1142 75.3439,57.1142 73.5,59.5 Z"/></g>
<g><path style="opacity:1" fill="#fec470" d="M 63.5,53.5 C 61.2859,46.9496 56.9526,42.2829 50.5,39.5C 51.2361,35.2088 53.5694,32.0421 57.5,30C 67.5583,27.5674 73.5583,31.4008 75.5,41.5C 74.4476,48.5526 70.4476,52.5526 63.5,53.5 Z"/></g>
<g><path style="opacity:1" fill="#94cdfc" d="M 42.5,38.5 C 45.2372,38.4013 47.9039,38.7347 50.5,39.5C 56.9526,42.2829 61.2859,46.9496 63.5,53.5C 63.5,54.8333 63.5,56.1667 63.5,57.5C 67.037,57.3107 70.3703,57.9774 73.5,59.5C 79.3804,66.7189 78.3804,72.8856 70.5,78C 52.1667,78.6667 33.8333,78.6667 15.5,78C 5.85625,70.1677 6.18958,62.8343 16.5,56C 18.9005,55.8142 21.2338,55.3142 23.5,54.5C 26.2144,44.7799 32.5477,39.4466 42.5,38.5 Z"/></g>
</svg>
