<?xml version="1.0" encoding="UTF-8"?>
<!DOCTYPE svg PUBLIC "-//W3C//DTD SVG 1.1//EN" "http://www.w3.org/Graphics/SVG/1.1/DTD/svg11.dtd">
<svg xmlns="http://www.w3.org/2000/svg" version="1.1" width="100px" height="100px" style="shape-rendering:geometricPrecision; text-rendering:geometricPrecision; image-rendering:optimizeQuality; fill-rule:evenodd; clip-rule:evenodd" xmlns:xlink="http://www.w3.org/1999/xlink">
<g><path style="opacity:1" fill="#464073" d="M 44.5,12.5 C 56.232,11.2555 64.5653,15.9221 69.5,26.5C 84.044,28.2781 88.8773,35.9447 84,49.5C 82.0616,52.1059 79.5616,53.9392 76.5,55C 58.5,55.6667 40.5,55.6667 22.5,55C 13.0276,50.2492 10.5276,43.0825 15,33.5C 18.8436,29.1618 23.6769,26.8285 29.5,26.5C 32.6347,19.6942 37.6347,15.0275 44.5,12.5 Z"/></g>
<g><path style="opacity:1" fill="#93cdfd" d="M 44.5,15.5 C 55.8059,14.3148 63.4726,18.9815 67.5,29.5C 73.2076,29.4759 78.0409,31.4759 82,35.5C 84.9789,43.0405 82.8122,48.5405 75.5,52C 57.0761,52.9731 38.7428,52.6398 20.5,51C 13.2945,43.4538 13.9612,36.7871 22.5,31C 25.5535,30.8214 28.5535,30.3214 31.5,29.5C 33.8221,22.8486 38.1554,18.1819 44.5,15.5 Z"/></g>
<g><path style="opacity:0.396" fill="#454545" d="M 70.5,17.5 C 72.2624,18.2623 73.2624,19.5956 73.5,21.5C 71.7376,20.7377 70.7376,19.4044 70.5,17.5 Z"/></g>
<g><path style="opacity:0.267" fill="#050505" d="M 89.5,31.5 C 91.4095,32.9746 92.5762,34.9746 93,37.5C 95.5569,49.3862 91.3902,57.7196 80.5,62.5C 79.3734,61.8783 78.3734,61.045 77.5,60C 90.5228,54.4563 94.5228,44.9563 89.5,31.5 Z"/></g>
<g><path style="opacity:0.188" fill="#111111" d="M 15.5,57.5 C 18.4864,59.4854 21.8197,60.6521 25.5,61C 24.4734,61.5133 23.4734,62.0133 22.5,62.5C 19.6733,61.5812 17.34,59.9145 15.5,57.5 Z"/></g>
<g><path style="opacity:1" fill="#4c4678" d="M 51.5,59.5 C 52.7498,59.5774 53.5831,60.244 54,61.5C 56.775,67.1016 55.9416,71.935 51.5,76C 44.6667,77.1667 41.8333,74.3333 43,67.5C 45.7028,64.6286 48.5361,61.9619 51.5,59.5 Z"/></g>
<g><path style="opacity:1" fill="#297eb6" d="M 50.5,63.5 C 52.385,65.7954 52.885,68.462 52,71.5C 49.1359,74.3264 46.9692,73.8264 45.5,70C 46.9852,67.683 48.6519,65.5164 50.5,63.5 Z"/></g>
<g><path style="opacity:0.255" fill="#040404" d="M 80.5,62.5 C 84.5954,69.0239 85.4287,76.0239 83,83.5C 78.8604,88.2114 73.6938,89.7114 67.5,88C 66.944,87.6174 66.6107,87.1174 66.5,86.5C 76.274,87.7993 81.6074,83.6326 82.5,74C 82.0692,70.1138 81.4026,66.2804 80.5,62.5 Z"/></g>
<g><path style="opacity:1" fill="#4c4779" d="M 28.5,64.5 C 29.675,64.281 30.675,64.6143 31.5,65.5C 33.1713,69.3643 33.6713,73.3643 33,77.5C 27.3104,83.366 23.1437,82.5327 20.5,75C 20.6251,73.3732 21.1251,71.8732 22,70.5C 24.3353,68.5998 26.502,66.5998 28.5,64.5 Z"/></g>
<g><path style="opacity:1" fill="#4c4779" d="M 72.5,64.5 C 73.675,64.281 74.675,64.6143 75.5,65.5C 77.1713,69.3643 77.6713,73.3643 77,77.5C 71.3104,83.366 67.1437,82.5327 64.5,75C 64.6251,73.3732 65.1251,71.8732 66,70.5C 68.3353,68.5998 70.502,66.5998 72.5,64.5 Z"/></g>
<g><path style="opacity:1" fill="#297fb6" d="M 28.5,68.5 C 30.2029,70.8512 30.7029,73.5178 30,76.5C 27.1359,79.3264 24.9692,78.8264 23.5,75C 24.6813,72.4232 26.348,70.2565 28.5,68.5 Z"/></g>
<g><path style="opacity:1" fill="#297fb6" d="M 72.5,68.5 C 74.2029,70.8512 74.7029,73.5178 74,76.5C 71.1359,79.3264 68.9692,78.8264 67.5,75C 68.6813,72.4232 70.348,70.2565 72.5,68.5 Z"/></g>
<g><path style="opacity:0.274" fill="#050505" d="M 40.5,79.5 C 37.0332,88.5057 31.0332,90.839 22.5,86.5C 30.7701,87.6192 36.2701,84.2859 39,76.5C 40.0386,77.2438 40.5386,78.2438 40.5,79.5 Z"/></g>
<g><path style="opacity:0.28" fill="#080808" d="M 59.5,80.5 C 54.6354,84.0064 49.6354,84.3397 44.5,81.5C 50.7342,82.6266 55.5675,80.6266 59,75.5C 59.4935,77.1341 59.6602,78.8008 59.5,80.5 Z"/></g>
<g><path style="opacity:0.09" fill="#202020" d="M 41.5,79.5 C 43.0269,79.427 44.0269,80.0937 44.5,81.5C 42.9731,81.573 41.9731,80.9063 41.5,79.5 Z"/></g>
<g><path style="opacity:0.124" fill="#252525" d="M 19.5,84.5 C 21.0269,84.427 22.0269,85.0937 22.5,86.5C 20.9731,86.573 19.9731,85.9063 19.5,84.5 Z"/></g>
<g><path style="opacity:0.243" fill="#262626" d="M 63.5,84.5 C 65.0269,84.427 66.0269,85.0937 66.5,86.5C 64.9731,86.573 63.9731,85.9063 63.5,84.5 Z"/></g>
</svg>
