<?xml version="1.0" encoding="UTF-8"?>
<!DOCTYPE svg PUBLIC "-//W3C//DTD SVG 1.1//EN" "http://www.w3.org/Graphics/SVG/1.1/DTD/svg11.dtd">
<svg xmlns="http://www.w3.org/2000/svg" version="1.1" width="100px" height="100px" style="shape-rendering:geometricPrecision; text-rendering:geometricPrecision; image-rendering:optimizeQuality; fill-rule:evenodd; clip-rule:evenodd" xmlns:xlink="http://www.w3.org/1999/xlink">
<g><path style="opacity:1" fill="#494578" d="M 54.5,10.5 C 62.6987,9.10013 69.8654,11.1001 76,16.5C 77.1737,20.0458 77.8404,23.7125 78,27.5C 81.598,31.5855 82.4314,36.2521 80.5,41.5C 82.2913,44.2475 82.7913,47.2475 82,50.5C 80.1838,55.0246 78.8505,59.6913 78,64.5C 75.4847,66.1069 74.1513,68.4402 74,71.5C 68.2475,79.1964 60.7475,84.363 51.5,87C 46.7613,87.7262 42.0947,87.3929 37.5,86C 33.9933,84.1387 32.8266,81.3054 34,77.5C 39.1123,70.7717 38.6123,64.6051 32.5,59C 17.6962,55.5609 13.5295,47.0609 20,33.5C 28.9719,21.9382 40.4719,14.2715 54.5,10.5 Z"/></g>
<g><path style="opacity:1" fill="#70bdfd" d="M 74.5,28.5 C 64.0625,44.8887 49.0625,53.222 29.5,53.5C 21.9361,52.3702 18.7694,48.0368 20,40.5C 29.8029,22.5135 44.9696,13.6802 65.5,14C 73.3909,15.5903 76.3909,20.4236 74.5,28.5 Z"/></g>
<g><path style="opacity:1" fill="#91cdff" d="M 52.5,20.5 C 55.8499,20.335 59.1832,20.5017 62.5,21C 64.4782,23.4973 64.9782,26.3307 64,29.5C 59.0984,38.5251 51.5984,43.3584 41.5,44C 38.3982,39.3469 39.3982,35.8469 44.5,33.5C 45.1667,33.8333 45.8333,34.1667 46.5,34.5C 44.9733,36.1933 43.6399,38.0266 42.5,40C 50.8544,39.8966 57.0211,36.0632 61,28.5C 62.1642,25.4333 61.1642,23.7666 58,23.5C 46.0226,25.3867 37.1893,31.5533 31.5,42C 30.5509,42.6172 29.7175,42.4506 29,41.5C 28.5825,39.212 29.2491,37.212 31,35.5C 36.987,28.6589 44.1537,23.6589 52.5,20.5 Z"/></g>
<g><path style="opacity:1" fill="#92cdfe" d="M 74.5,28.5 C 78.9724,32.4698 79.6391,37.1365 76.5,42.5C 65.0543,54.5346 51.0543,59.2013 34.5,56.5C 32.326,56.2503 30.6594,55.2503 29.5,53.5C 49.0625,53.222 64.0625,44.8887 74.5,28.5 Z"/></g>
<g><path style="opacity:1" fill="#70bdfc" d="M 76.5,42.5 C 78.3868,43.7679 79.3868,45.6013 79.5,48C 79.0726,51.0234 77.7393,53.5234 75.5,55.5C 64.0677,61.8058 52.0677,63.1391 39.5,59.5C 38.8933,59.6236 38.56,59.9569 38.5,60.5C 37.1667,59.1667 35.8333,57.8333 34.5,56.5C 51.0543,59.2013 65.0543,54.5346 76.5,42.5 Z"/></g>
<g><path style="opacity:1" fill="#91cdfe" d="M 75.5,55.5 C 77.506,59.9906 76.1727,63.3239 71.5,65.5C 60.1776,69.1277 49.5109,67.7943 39.5,61.5C 38.8333,61.5 38.5,61.1667 38.5,60.5C 38.56,59.9569 38.8933,59.6236 39.5,59.5C 52.0677,63.1391 64.0677,61.8058 75.5,55.5 Z"/></g>
<g><path style="opacity:1" fill="#71befd" d="M 39.5,61.5 C 49.5109,67.7943 60.1776,69.1277 71.5,65.5C 72.163,70.1697 70.163,72.8364 65.5,73.5C 55.8647,74.3453 47.698,71.3453 41,64.5C 40.6012,64.7284 40.4346,65.0618 40.5,65.5C 39.5655,64.4324 39.2322,63.099 39.5,61.5 Z"/></g>
<g><path style="opacity:1" fill="#86c5fb" d="M 65.5,73.5 C 65.3048,77.1924 63.3048,79.0258 59.5,79C 58.8333,80 58.1667,81 57.5,82C 54.6069,82.2734 51.9403,83.1068 49.5,84.5C 45.8269,84.9475 42.1602,84.4475 38.5,83C 37.4258,82.2613 36.7591,81.2613 36.5,80C 39.31,75.5951 40.6434,70.7618 40.5,65.5C 40.4346,65.0618 40.6012,64.7284 41,64.5C 47.698,71.3453 55.8647,74.3453 65.5,73.5 Z"/></g>
</svg>
