<?xml version="1.0" encoding="UTF-8"?>
<!DOCTYPE svg PUBLIC "-//W3C//DTD SVG 1.1//EN" "http://www.w3.org/Graphics/SVG/1.1/DTD/svg11.dtd">
<svg xmlns="http://www.w3.org/2000/svg" version="1.1" width="100px" height="100px" style="shape-rendering:geometricPrecision; text-rendering:geometricPrecision; image-rendering:optimizeQuality; fill-rule:evenodd; clip-rule:evenodd" xmlns:xlink="http://www.w3.org/1999/xlink">
<g><path style="opacity:1" fill="#484173" d="M 44.5,12.5 C 56.232,11.2555 64.5653,15.9221 69.5,26.5C 84.044,28.2781 88.8773,35.9447 84,49.5C 82.0616,52.1059 79.5616,53.9392 76.5,55C 70.8333,55.3333 65.1667,55.6667 59.5,56C 58.7069,57.0852 58.0402,58.2519 57.5,59.5C 59.396,60.4656 61.396,60.7989 63.5,60.5C 63.046,63.1398 61.8793,65.4732 60,67.5C 54.656,73.6759 49.156,79.6759 43.5,85.5C 43.1667,84.5 42.8333,83.5 42.5,82.5C 43.8811,78.2621 44.8811,73.9287 45.5,69.5C 43.5,69.5 41.5,69.5 39.5,69.5C 40.4607,64.7441 42.1273,60.2441 44.5,56C 37.1667,55.6667 29.8333,55.3333 22.5,55C 13.0276,50.2492 10.5276,43.0825 15,33.5C 18.8436,29.1618 23.6769,26.8285 29.5,26.5C 32.6347,19.6942 37.6347,15.0275 44.5,12.5 Z"/></g>
<g><path style="opacity:1" fill="#93cdfd" d="M 57.5,52.5 C 54.1667,52.5 50.8333,52.5 47.5,52.5C 39.16,52.6664 30.8267,52.4997 22.5,52C 14.1248,46.0502 13.4581,39.3835 20.5,32C 24.0985,30.9861 27.7652,30.1527 31.5,29.5C 37.4953,15.835 47.1619,12.335 60.5,19C 63.7015,21.8977 66.0348,25.3977 67.5,29.5C 74.1796,29.4219 79.3463,32.0886 83,37.5C 84.3229,44.3552 81.8229,49.1885 75.5,52C 69.5092,52.4995 63.5092,52.6662 57.5,52.5 Z"/></g>
<g><path style="opacity:0.396" fill="#454545" d="M 70.5,17.5 C 72.2624,18.2623 73.2624,19.5956 73.5,21.5C 71.7376,20.7377 70.7376,19.4044 70.5,17.5 Z"/></g>
<g><path style="opacity:0.278" fill="#080808" d="M 88.5,30.5 C 90.9842,32.1198 92.4842,34.4531 93,37.5C 95.5762,53.0767 89.0762,61.41 73.5,62.5C 72.0222,62.762 70.6888,62.4287 69.5,61.5C 88.7658,58.9274 95.0991,48.594 88.5,30.5 Z"/></g>
<g><path style="opacity:1" fill="#b4a17c" d="M 47.5,52.5 C 50.8333,52.5 54.1667,52.5 57.5,52.5C 57.0113,53.9952 56.3446,55.3285 55.5,56.5C 53.0521,55.5269 50.3854,55.1936 47.5,55.5C 47.5,54.5 47.5,53.5 47.5,52.5 Z"/></g>
<g><path style="opacity:1" fill="#f6db84" d="M 47.5,55.5 C 50.3854,55.1936 53.0521,55.5269 55.5,56.5C 54.5448,58.7457 53.8782,61.079 53.5,63.5C 55.1992,63.3398 56.8659,63.5065 58.5,64C 55,68.1667 51.5,72.3333 48,76.5C 47.5403,73.6956 48.0403,71.0289 49.5,68.5C 47.8507,67.0118 45.8507,66.0118 43.5,65.5C 44.8489,62.141 46.1822,58.8077 47.5,55.5 Z"/></g>
<g><path style="opacity:0.293" fill="#090909" d="M 15.5,57.5 C 17.2554,58.0722 18.9221,58.9055 20.5,60C 25.8642,60.1705 31.1975,60.6705 36.5,61.5C 36.3764,62.1067 36.0431,62.44 35.5,62.5C 34.5,62.5 33.5,62.5 32.5,62.5C 30.8333,62.5 29.1667,62.5 27.5,62.5C 22.5896,62.7592 18.5896,61.0925 15.5,57.5 Z"/></g>
<g><path style="opacity:0.234" fill="#080808" d="M 76.5,65.5 C 81.7715,71.5712 82.6049,78.2379 79,85.5C 73.9837,89.4038 69.1504,89.4038 64.5,85.5C 69.2877,87.2413 73.4544,86.2413 77,82.5C 79.9745,76.8164 79.8079,71.1498 76.5,65.5 Z"/></g>
<g><path style="opacity:1" fill="#4a4476" d="M 28.5,68.5 C 29.5,68.5 30.5,68.5 31.5,68.5C 32.412,72.1306 32.5787,75.7973 32,79.5C 29.9361,80.5914 27.7695,80.7581 25.5,80C 24.1059,79.044 23.4393,77.7106 23.5,76C 24.5463,73.1142 26.2129,70.6142 28.5,68.5 Z"/></g>
<g><path style="opacity:1" fill="#484275" d="M 69.5,68.5 C 70.5,68.5 71.5,68.5 72.5,68.5C 73.3761,71.7989 73.5428,75.1322 73,78.5C 71.1917,80.3959 69.025,80.8959 66.5,80C 65.1059,79.044 64.4393,77.7106 64.5,76C 65.5463,73.1142 67.2129,70.6142 69.5,68.5 Z"/></g>
<g><path style="opacity:1" fill="#d4e8fa" d="M 28.5,72.5 C 29.4511,73.9187 29.7845,75.5853 29.5,77.5C 28.5,77.5 27.5,77.5 26.5,77.5C 26.3915,75.4862 27.0582,73.8195 28.5,72.5 Z"/></g>
<g><path style="opacity:1" fill="#d4e8fa" d="M 69.5,72.5 C 70.4511,73.9187 70.7845,75.5853 70.5,77.5C 69.5,77.5 68.5,77.5 67.5,77.5C 67.3915,75.4862 68.0582,73.8195 69.5,72.5 Z"/></g>
<g><path style="opacity:0.266" fill="#0c0c0c" d="M 59.5,81.5 C 56.0672,84.8297 52.7339,88.3297 49.5,92C 46.8333,92.6667 44.1667,92.6667 41.5,92C 40.944,91.6174 40.6107,91.1174 40.5,90.5C 42.5273,90.6621 44.5273,90.4955 46.5,90C 50.7016,86.1334 54.5349,81.9668 58,77.5C 59.1882,78.5634 59.6882,79.8967 59.5,81.5 Z"/></g>
<g><path style="opacity:0.247" fill="#0b0b0b" d="M 36.5,86.5 C 31.7936,89.4409 27.4603,89.1076 23.5,85.5C 28.2877,87.2413 32.4544,86.2413 36,82.5C 36.49,83.7932 36.6567,85.1266 36.5,86.5 Z"/></g>
</svg>
