<?xml version="1.0" encoding="UTF-8"?>
<!DOCTYPE svg PUBLIC "-//W3C//DTD SVG 1.1//EN" "http://www.w3.org/Graphics/SVG/1.1/DTD/svg11.dtd">
<svg xmlns="http://www.w3.org/2000/svg" version="1.1" width="100px" height="100px" style="shape-rendering:geometricPrecision; text-rendering:geometricPrecision; image-rendering:optimizeQuality; fill-rule:evenodd; clip-rule:evenodd" xmlns:xlink="http://www.w3.org/1999/xlink">
<g><path style="opacity:1" fill="#464175" d="M 48.5,22.5 C 65.8583,21.1942 74.5249,29.1942 74.5,46.5C 90.1915,47.7234 95.0248,55.7234 89,70.5C 86.3304,73.2496 83.1637,75.0829 79.5,76C 57.8333,76.6667 36.1667,76.6667 14.5,76C 7.5114,71.8722 5.67807,66.0389 9,58.5C 10.883,55.9756 13.383,54.6423 16.5,54.5C 17.3517,42.6478 23.685,37.3145 35.5,38.5C 35.5465,35.0722 36.7132,32.0722 39,29.5C 42.0681,26.9174 45.2348,24.5841 48.5,22.5 Z"/></g>
<g><path style="opacity:1" fill="#6fbdfd" d="M 49.5,25.5 C 66.2453,24.9964 73.2453,32.9964 70.5,49.5C 86.1313,48.2831 91.298,54.9498 86,69.5C 84.4207,71.0412 82.5873,72.2078 80.5,73C 58.8333,73.6667 37.1667,73.6667 15.5,73C 10.9315,70.4586 9.43146,66.6253 11,61.5C 12.9709,58.3615 15.8042,56.6948 19.5,56.5C 19.265,44.5604 24.9317,39.7271 36.5,42C 38.3571,34.4064 42.6904,28.9064 49.5,25.5 Z"/></g>
<g><path style="opacity:0.255" fill="#252525" d="M 75.5,28.5 C 76.9063,28.9731 77.573,29.9731 77.5,31.5C 76.0937,31.0269 75.427,30.0269 75.5,28.5 Z"/></g>
<g><path style="opacity:0.198" fill="#030303" d="M 77.5,31.5 C 79.7851,34.335 81.1184,37.6684 81.5,41.5C 80.4138,41.38 79.7472,40.7133 79.5,39.5C 78.8288,36.8151 78.1621,34.1484 77.5,31.5 Z"/></g>
<g><path style="opacity:0.11" fill="#1e1e1e" d="M 93.5,49.5 C 94.9063,49.9731 95.573,50.9731 95.5,52.5C 94.0937,52.0269 93.427,51.0269 93.5,49.5 Z"/></g>
<g><path style="opacity:0.307" fill="#020202" d="M 95.5,52.5 C 97.5681,55.2119 98.9014,58.2119 99.5,61.5C 99.5,62.8333 99.5,64.1667 99.5,65.5C 97.8987,74.1788 92.8987,80.0121 84.5,83C 61.1667,83.6667 37.8333,83.6667 14.5,83C 12.4156,82.3028 10.7489,81.1361 9.5,79.5C 10.9217,79.7086 12.255,80.2086 13.5,81C 36.5,81.6667 59.5,81.6667 82.5,81C 94.8027,75.2234 99.136,65.7234 95.5,52.5 Z"/></g>
</svg>
