<?xml version="1.0" encoding="UTF-8"?>
<!DOCTYPE svg PUBLIC "-//W3C//DTD SVG 1.1//EN" "http://www.w3.org/Graphics/SVG/1.1/DTD/svg11.dtd">
<svg xmlns="http://www.w3.org/2000/svg" version="1.1" width="100px" height="100px" style="shape-rendering:geometricPrecision; text-rendering:geometricPrecision; image-rendering:optimizeQuality; fill-rule:evenodd; clip-rule:evenodd" xmlns:xlink="http://www.w3.org/1999/xlink">
<g><path style="opacity:1" fill="#484173" d="M 44.5,12.5 C 56.232,11.2555 64.5653,15.9221 69.5,26.5C 84.044,28.2781 88.8773,35.9447 84,49.5C 82.0616,52.1059 79.5616,53.9392 76.5,55C 70.8333,55.3333 65.1667,55.6667 59.5,56C 58.7069,57.0852 58.0402,58.2519 57.5,59.5C 59.396,60.4656 61.396,60.7989 63.5,60.5C 63.046,63.1398 61.8793,65.4732 60,67.5C 54.656,73.6759 49.156,79.6759 43.5,85.5C 43.1667,84.5 42.8333,83.5 42.5,82.5C 43.8811,78.2621 44.8811,73.9287 45.5,69.5C 43.5,69.5 41.5,69.5 39.5,69.5C 40.4607,64.7441 42.1273,60.2441 44.5,56C 37.1667,55.6667 29.8333,55.3333 22.5,55C 13.0276,50.2492 10.5276,43.0825 15,33.5C 18.8436,29.1618 23.6769,26.8285 29.5,26.5C 32.6347,19.6942 37.6347,15.0275 44.5,12.5 Z"/></g>
<g><path style="opacity:1" fill="#93cdfd" d="M 57.5,52.5 C 54.1667,52.5 50.8333,52.5 47.5,52.5C 39.16,52.6664 30.8267,52.4997 22.5,52C 14.1248,46.0502 13.4581,39.3835 20.5,32C 24.0985,30.9861 27.7652,30.1527 31.5,29.5C 37.4953,15.835 47.1619,12.335 60.5,19C 63.7015,21.8977 66.0348,25.3977 67.5,29.5C 74.1796,29.4219 79.3463,32.0886 83,37.5C 84.3229,44.3552 81.8229,49.1885 75.5,52C 69.5092,52.4995 63.5092,52.6662 57.5,52.5 Z"/></g>
<g><path style="opacity:1" fill="#b4a17c" d="M 47.5,52.5 C 50.8333,52.5 54.1667,52.5 57.5,52.5C 57.0113,53.9952 56.3446,55.3285 55.5,56.5C 53.0521,55.5269 50.3854,55.1936 47.5,55.5C 47.5,54.5 47.5,53.5 47.5,52.5 Z"/></g>
<g><path style="opacity:1" fill="#f6db84" d="M 47.5,55.5 C 50.3854,55.1936 53.0521,55.5269 55.5,56.5C 54.5448,58.7457 53.8782,61.079 53.5,63.5C 55.1992,63.3398 56.8659,63.5065 58.5,64C 55,68.1667 51.5,72.3333 48,76.5C 47.5403,73.6956 48.0403,71.0289 49.5,68.5C 47.8507,67.0118 45.8507,66.0118 43.5,65.5C 44.8489,62.141 46.1822,58.8077 47.5,55.5 Z"/></g>
<g><path style="opacity:1" fill="#4a4476" d="M 28.5,68.5 C 29.5,68.5 30.5,68.5 31.5,68.5C 32.412,72.1306 32.5787,75.7973 32,79.5C 29.9361,80.5914 27.7695,80.7581 25.5,80C 24.1059,79.044 23.4393,77.7106 23.5,76C 24.5463,73.1142 26.2129,70.6142 28.5,68.5 Z"/></g>
<g><path style="opacity:1" fill="#484275" d="M 69.5,68.5 C 70.5,68.5 71.5,68.5 72.5,68.5C 73.3761,71.7989 73.5428,75.1322 73,78.5C 71.1917,80.3959 69.025,80.8959 66.5,80C 65.1059,79.044 64.4393,77.7106 64.5,76C 65.5463,73.1142 67.2129,70.6142 69.5,68.5 Z"/></g>
<g><path style="opacity:1" fill="#d4e8fa" d="M 28.5,72.5 C 29.4511,73.9187 29.7845,75.5853 29.5,77.5C 28.5,77.5 27.5,77.5 26.5,77.5C 26.3915,75.4862 27.0582,73.8195 28.5,72.5 Z"/></g>
<g><path style="opacity:1" fill="#d4e8fa" d="M 69.5,72.5 C 70.4511,73.9187 70.7845,75.5853 70.5,77.5C 69.5,77.5 68.5,77.5 67.5,77.5C 67.3915,75.4862 68.0582,73.8195 69.5,72.5 Z"/></g>
</svg>
