<?xml version="1.0" encoding="UTF-8"?>
<!DOCTYPE svg PUBLIC "-//W3C//DTD SVG 1.1//EN" "http://www.w3.org/Graphics/SVG/1.1/DTD/svg11.dtd">
<svg xmlns="http://www.w3.org/2000/svg" version="1.1" width="100px" height="100px" style="shape-rendering:geometricPrecision; text-rendering:geometricPrecision; image-rendering:optimizeQuality; fill-rule:evenodd; clip-rule:evenodd" xmlns:xlink="http://www.w3.org/1999/xlink">
<g><path style="opacity:1" fill="#494073" d="M 45.5,7.5 C 55.3759,6.41368 60.0425,10.747 59.5,20.5C 60.5,20.5 61.5,20.5 62.5,20.5C 62.5,21.5 62.5,22.5 62.5,23.5C 61.5,23.5 60.5,23.5 59.5,23.5C 59.5,25.1667 59.5,26.8333 59.5,28.5C 60.5,28.5 61.5,28.5 62.5,28.5C 62.5,29.5 62.5,30.5 62.5,31.5C 61.5,31.5 60.5,31.5 59.5,31.5C 59.5,33.1667 59.5,34.8333 59.5,36.5C 60.5,36.5 61.5,36.5 62.5,36.5C 62.5,37.5 62.5,38.5 62.5,39.5C 61.5,39.5 60.5,39.5 59.5,39.5C 59.5,41.1667 59.5,42.8333 59.5,44.5C 60.5,44.5 61.5,44.5 62.5,44.5C 62.5,45.5 62.5,46.5 62.5,47.5C 61.5,47.5 60.5,47.5 59.5,47.5C 59.5,49.1667 59.5,50.8333 59.5,52.5C 60.5,52.5 61.5,52.5 62.5,52.5C 62.3433,53.8734 62.51,55.2068 63,56.5C 70.8668,67.0059 70.0335,76.8393 60.5,86C 47.8037,92.8554 37.9704,90.0221 31,77.5C 27.4547,67.5948 29.9547,59.5948 38.5,53.5C 39.3327,40.1791 39.8327,26.8458 40,13.5C 41.3597,10.9774 43.193,8.97739 45.5,7.5 Z"/></g>
<g><path style="opacity:0.206" fill="#020202" d="M 63.5,10.5 C 65.4484,12.3204 66.4484,14.6538 66.5,17.5C 64.7587,15.6051 63.7587,13.2718 63.5,10.5 Z"/></g>
<g><path style="opacity:1" fill="#d7ecfd" d="M 56.5,20.5 C 54.5,20.5 52.5,20.5 50.5,20.5C 50.5,21.5 50.5,22.5 50.5,23.5C 52.5,23.5 54.5,23.5 56.5,23.5C 56.5,25.1667 56.5,26.8333 56.5,28.5C 54.5,28.5 52.5,28.5 50.5,28.5C 50.5,29.5 50.5,30.5 50.5,31.5C 52.5,31.5 54.5,31.5 56.5,31.5C 56.5,33.1667 56.5,34.8333 56.5,36.5C 51.8333,36.5 47.1667,36.5 42.5,36.5C 42.3337,29.1591 42.5003,21.8258 43,14.5C 47.3333,9.16667 51.6667,9.16667 56,14.5C 56.4955,16.4727 56.6621,18.4727 56.5,20.5 Z"/></g>
<g><path style="opacity:0.335" fill="#010101" d="M 67.5,18.5 C 68.2216,18.9175 68.7216,19.5842 69,20.5C 69.4999,32.1619 69.6665,43.8286 69.5,55.5C 68.8826,55.3893 68.3826,55.056 68,54.5C 67.5001,42.5046 67.3335,30.5046 67.5,18.5 Z"/></g>
<g><path style="opacity:1" fill="#74c0ff" d="M 56.5,20.5 C 56.5,21.5 56.5,22.5 56.5,23.5C 54.5,23.5 52.5,23.5 50.5,23.5C 50.5,22.5 50.5,21.5 50.5,20.5C 52.5,20.5 54.5,20.5 56.5,20.5 Z"/></g>
<g><path style="opacity:1" fill="#74c0ff" d="M 56.5,28.5 C 56.5,29.5 56.5,30.5 56.5,31.5C 54.5,31.5 52.5,31.5 50.5,31.5C 50.5,30.5 50.5,29.5 50.5,28.5C 52.5,28.5 54.5,28.5 56.5,28.5 Z"/></g>
<g><path style="opacity:1" fill="#ef635a" d="M 42.5,36.5 C 47.1667,36.5 51.8333,36.5 56.5,36.5C 56.3338,42.8421 56.5005,49.1754 57,55.5C 67.2866,63.7522 68.1199,72.9189 59.5,83C 47.6442,89.4853 38.8109,86.652 33,74.5C 31.6505,65.8664 34.6505,59.1998 42,54.5C 42.4995,48.5092 42.6662,42.5092 42.5,36.5 Z"/></g>
<g><path style="opacity:0.2" fill="#212121" d="M 69.5,55.5 C 70.9063,55.9731 71.573,56.9731 71.5,58.5C 70.0937,58.0269 69.427,57.0269 69.5,55.5 Z"/></g>
<g><path style="opacity:0.26" fill="#060606" d="M 71.5,58.5 C 74.8775,62.253 76.2108,66.753 75.5,72C 73.3821,91.0836 62.7154,99.0836 43.5,96C 40.9746,95.5762 38.9746,94.4095 37.5,92.5C 43.3529,94.3991 49.3529,94.8991 55.5,94C 71.8187,87.1918 77.152,75.3585 71.5,58.5 Z"/></g>
<g><path style="opacity:0.208" fill="#1f1f1f" d="M 34.5,90.5 C 36.0269,90.427 37.0269,91.0937 37.5,92.5C 35.9731,92.573 34.9731,91.9063 34.5,90.5 Z"/></g>
</svg>
