<?xml version="1.0" encoding="UTF-8"?>
<!DOCTYPE svg PUBLIC "-//W3C//DTD SVG 1.1//EN" "http://www.w3.org/Graphics/SVG/1.1/DTD/svg11.dtd">
<svg xmlns="http://www.w3.org/2000/svg" version="1.1" width="100px" height="100px" style="shape-rendering:geometricPrecision; text-rendering:geometricPrecision; image-rendering:optimizeQuality; fill-rule:evenodd; clip-rule:evenodd" xmlns:xlink="http://www.w3.org/1999/xlink">
<g><path style="opacity:1" fill="#474174" d="M 44.5,13.5 C 56.2161,12.2319 64.5494,16.8986 69.5,27.5C 82.6981,28.8366 87.8647,35.8366 85,48.5C 83.1083,52.0579 80.2749,54.5579 76.5,56C 71.1771,56.4994 65.8437,56.666 60.5,56.5C 60.6951,61.4857 58.5284,63.1524 54,61.5C 52.7616,66.6371 50.0949,67.6371 46,64.5C 45.6667,63.5 45.3333,62.5 45,61.5C 40.4716,63.1524 38.3049,61.4857 38.5,56.5C 33.1563,56.666 27.8229,56.4994 22.5,56C 13.0276,51.2492 10.5276,44.0825 15,34.5C 18.8436,30.1618 23.6769,27.8285 29.5,27.5C 32.6347,20.6942 37.6347,16.0275 44.5,13.5 Z"/></g>
<g><path style="opacity:1" fill="#93cdfd" d="M 54.5,53.5 C 51.1667,53.5 47.8333,53.5 44.5,53.5C 37.1591,53.6663 29.8258,53.4997 22.5,53C 14.1248,47.0502 13.4581,40.3835 20.5,33C 24.0985,31.9861 27.7652,31.1527 31.5,30.5C 37.4953,16.835 47.1619,13.335 60.5,20C 63.7015,22.8977 66.0348,26.3977 67.5,30.5C 74.1796,30.4219 79.3463,33.0886 83,38.5C 84.2187,43.898 82.7187,48.398 78.5,52C 70.5852,53.4011 62.5852,53.9011 54.5,53.5 Z"/></g>
<g><path style="opacity:0.269" fill="#0a0a0a" d="M 88.5,31.5 C 90.9842,33.1198 92.4842,35.4531 93,38.5C 95.3435,47.6398 92.8435,54.9731 85.5,60.5C 84.1266,60.6567 82.7932,60.49 81.5,60C 91.8659,52.4587 94.1992,42.9587 88.5,31.5 Z"/></g>
<g><path style="opacity:1" fill="#cee1f4" d="M 44.5,53.5 C 47.8333,53.5 51.1667,53.5 54.5,53.5C 54.244,55.9124 55.244,57.5791 57.5,58.5C 57.1667,58.8333 56.8333,59.1667 56.5,59.5C 54.677,58.2528 52.677,57.5861 50.5,57.5C 49.8333,65.5 49.1667,65.5 48.5,57.5C 46.323,57.5861 44.323,58.2528 42.5,59.5C 42.1667,59.1667 41.8333,58.8333 41.5,58.5C 43.756,57.5791 44.756,55.9124 44.5,53.5 Z"/></g>
<g><path style="opacity:1" fill="#4a4476" d="M 22.5,61.5 C 26.2509,61.0824 28.4176,62.749 29,66.5C 35.3978,65.417 36.8978,67.7503 33.5,73.5C 36.8978,79.2497 35.3978,81.583 29,80.5C 27.7616,85.6371 25.0949,86.6371 21,83.5C 20.6667,82.5 20.3333,81.5 20,80.5C 13.6022,81.583 12.1022,79.2497 15.5,73.5C 12.1022,67.7503 13.6022,65.417 20,66.5C 20.3661,64.5483 21.1995,62.8816 22.5,61.5 Z"/></g>
<g><path style="opacity:1" fill="#4a4476" d="M 72.5,61.5 C 76.2509,61.0824 78.4176,62.749 79,66.5C 85.3978,65.417 86.8978,67.7503 83.5,73.5C 86.8978,79.2497 85.3978,81.583 79,80.5C 77.7616,85.6371 75.0949,86.6371 71,83.5C 70.6667,82.5 70.3333,81.5 70,80.5C 63.6022,81.583 62.1022,79.2497 65.5,73.5C 62.1022,67.7503 63.6022,65.417 70,66.5C 70.3661,64.5483 71.1995,62.8816 72.5,61.5 Z"/></g>
<g><path style="opacity:1" fill="#cde0f3" d="M 23.5,64.5 C 25.3079,65.9179 25.9746,67.9179 25.5,70.5C 27.677,70.4139 29.677,69.7472 31.5,68.5C 31.8333,68.8333 32.1667,69.1667 32.5,69.5C 27.1667,72.1667 27.1667,74.8333 32.5,77.5C 32.1667,77.8333 31.8333,78.1667 31.5,78.5C 29.677,77.2528 27.677,76.5861 25.5,76.5C 24.8333,84.5 24.1667,84.5 23.5,76.5C 21.323,76.5861 19.323,77.2528 17.5,78.5C 17.1667,78.1667 16.8333,77.8333 16.5,77.5C 21.8333,74.8333 21.8333,72.1667 16.5,69.5C 16.8333,69.1667 17.1667,68.8333 17.5,68.5C 19.323,69.7472 21.323,70.4139 23.5,70.5C 23.5,68.5 23.5,66.5 23.5,64.5 Z"/></g>
<g><path style="opacity:1" fill="#cde0f3" d="M 73.5,64.5 C 75.3079,65.9179 75.9746,67.9179 75.5,70.5C 77.677,70.4139 79.677,69.7472 81.5,68.5C 81.8333,68.8333 82.1667,69.1667 82.5,69.5C 77.1667,72.1667 77.1667,74.8333 82.5,77.5C 82.1667,77.8333 81.8333,78.1667 81.5,78.5C 79.677,77.2528 77.677,76.5861 75.5,76.5C 74.8333,84.5 74.1667,84.5 73.5,76.5C 71.323,76.5861 69.323,77.2528 67.5,78.5C 67.1667,78.1667 66.8333,77.8333 66.5,77.5C 71.8333,74.8333 71.8333,72.1667 66.5,69.5C 66.8333,69.1667 67.1667,68.8333 67.5,68.5C 69.323,69.7472 71.323,70.4139 73.5,70.5C 73.5,68.5 73.5,66.5 73.5,64.5 Z"/></g>
<g><path style="opacity:0.273" fill="#101010" d="M 89.5,64.5 C 90.7899,65.0577 91.6232,66.0577 92,67.5C 92.9094,73.6123 92.576,79.6123 91,85.5C 87.3861,87.4824 83.8861,89.6491 80.5,92C 77.8333,92.6667 75.1667,92.6667 72.5,92C 71.0577,91.6232 70.0577,90.7899 69.5,89.5C 72.1128,90.4349 74.7795,90.6015 77.5,90C 81.4494,87.6828 85.2828,85.1828 89,82.5C 89.923,80.9656 90.423,79.299 90.5,77.5C 90.4832,73.1935 90.1498,68.8602 89.5,64.5 Z"/></g>
<g><path style="opacity:0.28" fill="#101010" d="M 42.5,69.5 C 42.6658,74.1785 42.4992,78.8452 42,83.5C 41.5348,84.9308 40.7014,86.0975 39.5,87C 36.0618,87.92 33.0618,89.5867 30.5,92C 27.8333,92.6667 25.1667,92.6667 22.5,92C 21.0577,91.6232 20.0577,90.7899 19.5,89.5C 22.1128,90.4349 24.7795,90.6015 27.5,90C 30.0618,87.5867 33.0618,85.92 36.5,85C 38.0488,83.786 39.2155,82.286 40,80.5C 39.9722,76.9217 40.1389,73.4217 40.5,70C 41.0396,67.0148 41.7063,66.8481 42.5,69.5 Z"/></g>
<g><path style="opacity:0.282" fill="#111111" d="M 58.5,71.5 C 53.469,74.4493 48.8023,74.116 44.5,70.5C 49.5034,72.3885 53.8367,71.3885 57.5,67.5C 58.4287,68.6888 58.762,70.0222 58.5,71.5 Z"/></g>
<g><path style="opacity:0.178" fill="#191919" d="M 12.5,85.5 C 14.8477,85.5923 16.5144,86.5923 17.5,88.5C 15.326,88.2503 13.6594,87.2503 12.5,85.5 Z"/></g>
<g><path style="opacity:0.178" fill="#191919" d="M 62.5,85.5 C 64.8477,85.5923 66.5144,86.5923 67.5,88.5C 65.326,88.2503 63.6594,87.2503 62.5,85.5 Z"/></g>
</svg>
