<?xml version="1.0" encoding="UTF-8"?>
<!DOCTYPE svg PUBLIC "-//W3C//DTD SVG 1.1//EN" "http://www.w3.org/Graphics/SVG/1.1/DTD/svg11.dtd">
<svg xmlns="http://www.w3.org/2000/svg" version="1.1" width="100px" height="100px" style="shape-rendering:geometricPrecision; text-rendering:geometricPrecision; image-rendering:optimizeQuality; fill-rule:evenodd; clip-rule:evenodd" xmlns:xlink="http://www.w3.org/1999/xlink">
<g><path style="opacity:1" fill="#4e4471" d="M 48.5,7.5 C 49.4959,7.41423 50.3292,7.74756 51,8.5C 52.746,12.3267 54.746,15.9934 57,19.5C 58.3894,17.7727 60.0561,16.4394 62,15.5C 62.772,15.6448 63.4387,15.9781 64,16.5C 64.115,19.0082 65.115,21.0082 67,22.5C 70.7175,20.9818 74.5508,19.9818 78.5,19.5C 77.8124,23.2214 76.8124,26.888 75.5,30.5C 75.6082,31.4419 75.9415,32.2753 76.5,33C 83.7173,34.2061 84.384,37.2061 78.5,42C 82.8569,43.8408 86.8569,46.1741 90.5,49C 90.3552,49.772 90.0219,50.4387 89.5,51C 85.7143,52.3926 82.0477,54.0593 78.5,56C 84.5961,61.544 83.5961,64.7106 75.5,65.5C 76.3918,69.3455 77.3918,73.1788 78.5,77C 78.1667,77.8333 77.8333,78.6667 77.5,79.5C 73.8333,78.1667 70.1667,76.8333 66.5,75.5C 65.4016,77.6317 64.4016,79.7984 63.5,82C 60.9848,81.7838 58.6515,81.1171 56.5,80C 54.3295,83.6589 51.9962,87.1589 49.5,90.5C 46.6007,87.0484 43.9341,83.3817 41.5,79.5C 39.7539,81.8541 37.4206,82.8541 34.5,82.5C 34.0074,80.1944 33.6741,77.861 33.5,75.5C 28.9061,76.815 24.2394,77.815 19.5,78.5C 19.6743,74.3072 20.6743,70.3072 22.5,66.5C 20.6314,65.3764 18.6314,64.5431 16.5,64C 15.9781,63.4387 15.6448,62.772 15.5,62C 16.6254,60.0374 17.9587,58.204 19.5,56.5C 16.1122,54.1394 12.4456,52.3061 8.5,51C 7.97814,50.4387 7.6448,49.772 7.5,49C 11.3027,46.261 15.3027,43.761 19.5,41.5C 13.7148,36.3979 14.7148,33.7312 22.5,33.5C 21.5,28.8333 20.5,24.1667 19.5,19.5C 23.2214,20.1876 26.888,21.1876 30.5,22.5C 31.4419,22.3918 32.2753,22.0585 33,21.5C 33.0047,18.7708 34.1713,16.7708 36.5,15.5C 38.1933,17.0267 40.0266,18.3601 42,19.5C 44.4333,15.6326 46.6,11.6326 48.5,7.5 Z"/></g>
<g><path style="opacity:1" fill="#f5b550" d="M 48.5,13.5 C 49.4959,13.4142 50.3292,13.7476 51,14.5C 52.1189,17.7641 53.9522,20.4308 56.5,22.5C 58.4048,21.935 60.0715,20.935 61.5,19.5C 62.0722,21.9171 63.0722,24.0838 64.5,26C 67.4717,25.9477 70.3051,25.1144 73,23.5C 73.5,23.8333 74,24.1667 74.5,24.5C 72.3602,27.865 71.6935,31.365 72.5,35C 74.5,35.8333 76.5,36.6667 78.5,37.5C 77.8551,38.646 77.0217,39.646 76,40.5C 75.3333,41.5 75.3333,42.5 76,43.5C 78.9212,45.7121 82.0879,47.5455 85.5,49C 82.3829,50.9733 79.2163,52.8067 76,54.5C 75.6652,57.1801 76.4986,59.5134 78.5,61.5C 76.9223,62.2978 75.2556,62.7978 73.5,63C 72.4258,63.7387 71.7591,64.7387 71.5,66C 72.9391,68.7047 73.9391,71.538 74.5,74.5C 70.8366,73.6594 67.1699,73.1594 63.5,73C 62.8971,74.8254 62.2304,76.6587 61.5,78.5C 59.4006,76.4798 57.0673,76.1465 54.5,77.5C 52.8333,80.1667 51.1667,82.8333 49.5,85.5C 47.303,81.7623 44.6363,78.429 41.5,75.5C 40.1667,76.5 38.8333,77.5 37.5,78.5C 36.8659,76.4332 35.8659,74.5998 34.5,73C 30.7537,72.7443 27.087,73.2443 23.5,74.5C 24.3406,70.8366 24.8406,67.1699 25,63.5C 23.1746,62.8971 21.3413,62.2304 19.5,61.5C 22.0212,59.7399 22.8545,57.4066 22,54.5C 18.7515,52.7929 15.5849,50.9596 12.5,49C 15.4689,47.5156 18.4689,46.0156 21.5,44.5C 23.0521,41.4326 22.3855,38.9326 19.5,37C 21.676,36.8371 23.5093,36.0037 25,34.5C 25.5417,31.2019 25.0417,28.0352 23.5,25C 23.8333,24.5 24.1667,24 24.5,23.5C 27.7228,25.0802 31.0562,25.9135 34.5,26C 35.8633,24.0551 36.6966,21.8884 37,19.5C 39.0662,22.1319 41.5662,22.7986 44.5,21.5C 45.8466,18.8068 47.1799,16.1401 48.5,13.5 Z"/></g>
<g><path style="opacity:1" fill="#fec470" d="M 44.5,30.5 C 61.0391,30.2039 68.8724,38.2039 68,54.5C 62.768,66.3665 53.9347,70.5332 41.5,67C 30.0036,59.8324 27.5036,50.3324 34,38.5C 36.94,34.9632 40.44,32.2965 44.5,30.5 Z"/></g>
</svg>
