<?xml version="1.0" encoding="UTF-8"?>
<!DOCTYPE svg PUBLIC "-//W3C//DTD SVG 1.1//EN" "http://www.w3.org/Graphics/SVG/1.1/DTD/svg11.dtd">
<svg xmlns="http://www.w3.org/2000/svg" version="1.1" width="100px" height="100px" style="shape-rendering:geometricPrecision; text-rendering:geometricPrecision; image-rendering:optimizeQuality; fill-rule:evenodd; clip-rule:evenodd" xmlns:xlink="http://www.w3.org/1999/xlink">
<g><path style="opacity:1" fill="#474276" d="M 48.5,15.5 C 63.2699,14.3605 71.6033,21.0272 73.5,35.5C 86.7845,36.9553 92.2845,44.2886 90,57.5C 89.3472,60.8066 87.6805,63.4733 85,65.5C 85.5465,71.874 83.3799,77.0407 78.5,81C 62.5673,82.6207 46.5673,82.954 30.5,82C 24.7324,79.737 21.3991,75.5704 20.5,69.5C 10.2441,69.7421 5.74408,64.7421 7,54.5C 9.04209,50.5694 12.2088,48.2361 16.5,47.5C 16.7587,36.6654 22.4254,31.1654 33.5,31C 36.018,23.3169 41.018,18.1503 48.5,15.5 Z"/></g>
<g><path style="opacity:1" fill="#6fbdfd" d="M 80.5,65.5 C 77.8234,62.6637 74.49,61.1637 70.5,61C 66.023,47.7599 57.3563,43.7599 44.5,49C 41.93,51.0673 39.93,53.5673 38.5,56.5C 30.8893,56.1259 25.8893,59.4592 23.5,66.5C 12.4477,68.2881 8.281,63.9547 11,53.5C 13.3046,51.0695 16.1379,50.0695 19.5,50.5C 18.6081,38.0583 24.2747,33.0583 36.5,35.5C 38.5347,22.968 45.868,17.468 58.5,19C 67.1954,22.5492 71.1954,29.0492 70.5,38.5C 83.6579,38.1589 89.1579,44.4923 87,57.5C 85.6954,60.9614 83.5287,63.628 80.5,65.5 Z"/></g>
<g><path style="opacity:1" fill="#d7edfe" d="M 80.5,65.5 C 82.235,70.3254 81.235,74.4921 77.5,78C 69.2392,79.1209 60.9059,79.6209 52.5,79.5C 45.1667,79.3333 37.8333,79.1667 30.5,79C 25.704,76.2437 23.3706,72.077 23.5,66.5C 25.8893,59.4592 30.8893,56.1259 38.5,56.5C 39.93,53.5673 41.93,51.0673 44.5,49C 57.3563,43.7599 66.023,47.7599 70.5,61C 74.49,61.1637 77.8234,62.6637 80.5,65.5 Z"/></g>
</svg>
