<?xml version="1.0" encoding="UTF-8"?>
<!DOCTYPE svg PUBLIC "-//W3C//DTD SVG 1.1//EN" "http://www.w3.org/Graphics/SVG/1.1/DTD/svg11.dtd">
<svg xmlns="http://www.w3.org/2000/svg" version="1.1" width="100px" height="100px" style="shape-rendering:geometricPrecision; text-rendering:geometricPrecision; image-rendering:optimizeQuality; fill-rule:evenodd; clip-rule:evenodd" xmlns:xlink="http://www.w3.org/1999/xlink">
<g><path style="opacity:1" fill="#464073" d="M 44.5,12.5 C 56.232,11.2555 64.5653,15.9221 69.5,26.5C 84.044,28.2781 88.8773,35.9447 84,49.5C 82.0616,52.1059 79.5616,53.9392 76.5,55C 58.5,55.6667 40.5,55.6667 22.5,55C 13.0276,50.2492 10.5276,43.0825 15,33.5C 18.8436,29.1618 23.6769,26.8285 29.5,26.5C 32.6347,19.6942 37.6347,15.0275 44.5,12.5 Z"/></g>
<g><path style="opacity:1" fill="#93cdfd" d="M 44.5,15.5 C 55.8059,14.3148 63.4726,18.9815 67.5,29.5C 73.2076,29.4759 78.0409,31.4759 82,35.5C 84.9789,43.0405 82.8122,48.5405 75.5,52C 57.0761,52.9731 38.7428,52.6398 20.5,51C 13.2945,43.4538 13.9612,36.7871 22.5,31C 25.5535,30.8214 28.5535,30.3214 31.5,29.5C 33.8221,22.8486 38.1554,18.1819 44.5,15.5 Z"/></g>
<g><path style="opacity:1" fill="#4c4678" d="M 51.5,59.5 C 52.7498,59.5774 53.5831,60.244 54,61.5C 56.775,67.1016 55.9416,71.935 51.5,76C 44.6667,77.1667 41.8333,74.3333 43,67.5C 45.7028,64.6286 48.5361,61.9619 51.5,59.5 Z"/></g>
<g><path style="opacity:1" fill="#297eb6" d="M 50.5,63.5 C 52.385,65.7954 52.885,68.462 52,71.5C 49.1359,74.3264 46.9692,73.8264 45.5,70C 46.9852,67.683 48.6519,65.5164 50.5,63.5 Z"/></g>
<g><path style="opacity:1" fill="#4c4779" d="M 28.5,64.5 C 29.675,64.281 30.675,64.6143 31.5,65.5C 33.1713,69.3643 33.6713,73.3643 33,77.5C 27.3104,83.366 23.1437,82.5327 20.5,75C 20.6251,73.3732 21.1251,71.8732 22,70.5C 24.3353,68.5998 26.502,66.5998 28.5,64.5 Z"/></g>
<g><path style="opacity:1" fill="#4c4779" d="M 72.5,64.5 C 73.675,64.281 74.675,64.6143 75.5,65.5C 77.1713,69.3643 77.6713,73.3643 77,77.5C 71.3104,83.366 67.1437,82.5327 64.5,75C 64.6251,73.3732 65.1251,71.8732 66,70.5C 68.3353,68.5998 70.502,66.5998 72.5,64.5 Z"/></g>
<g><path style="opacity:1" fill="#297fb6" d="M 28.5,68.5 C 30.2029,70.8512 30.7029,73.5178 30,76.5C 27.1359,79.3264 24.9692,78.8264 23.5,75C 24.6813,72.4232 26.348,70.2565 28.5,68.5 Z"/></g>
<g><path style="opacity:1" fill="#297fb6" d="M 72.5,68.5 C 74.2029,70.8512 74.7029,73.5178 74,76.5C 71.1359,79.3264 68.9692,78.8264 67.5,75C 68.6813,72.4232 70.348,70.2565 72.5,68.5 Z"/></g>
</svg>
